<svg xmlns="http://www.w3.org/2000/svg" viewBox="0 0 720 220" width="720" height="220" font-family="ui-monospace,Consolas,Menlo,monospace" font-size="11">
<rect width="100%" height="100%" fill="#ffffff"/>
<text x="360.0" y="14" text-anchor="middle" font-size="12" font-weight="bold">high_mu — vehicle speed during brake event</text>
<rect x="56" y="24" width="652" height="160" fill="none" stroke="#444" stroke-width="0.5"/>
<line x1="56.0" y1="184" x2="56.0" y2="187" stroke="#444"/>
<text x="56.0" y="198" text-anchor="middle" fill="#333">14.10</text>
<line x1="186.4" y1="184" x2="186.4" y2="187" stroke="#444"/>
<text x="186.4" y="198" text-anchor="middle" fill="#333">16.28</text>
<line x1="316.8" y1="184" x2="316.8" y2="187" stroke="#444"/>
<text x="316.8" y="198" text-anchor="middle" fill="#333">18.47</text>
<line x1="447.2" y1="184" x2="447.2" y2="187" stroke="#444"/>
<text x="447.2" y="198" text-anchor="middle" fill="#333">20.66</text>
<line x1="577.6" y1="184" x2="577.6" y2="187" stroke="#444"/>
<text x="577.6" y="198" text-anchor="middle" fill="#333">22.85</text>
<line x1="708.0" y1="184" x2="708.0" y2="187" stroke="#444"/>
<text x="708.0" y="198" text-anchor="middle" fill="#333">25.04</text>
<line x1="53" y1="184.0" x2="56" y2="184.0" stroke="#444"/>
<text x="51" y="184.0" text-anchor="end" dominant-baseline="middle" fill="#333">0.00</text>
<line x1="53" y1="152.0" x2="56" y2="152.0" stroke="#444"/>
<text x="51" y="152.0" text-anchor="end" dominant-baseline="middle" fill="#333">6.32</text>
<line x1="53" y1="120.0" x2="56" y2="120.0" stroke="#444"/>
<text x="51" y="120.0" text-anchor="end" dominant-baseline="middle" fill="#333">12.64</text>
<line x1="53" y1="88.0" x2="56" y2="88.0" stroke="#444"/>
<text x="51" y="88.0" text-anchor="end" dominant-baseline="middle" fill="#333">18.95</text>
<line x1="53" y1="56.0" x2="56" y2="56.0" stroke="#444"/>
<text x="51" y="56.0" text-anchor="end" dominant-baseline="middle" fill="#333">25.27</text>
<line x1="53" y1="24.0" x2="56" y2="24.0" stroke="#444"/>
<text x="51" y="24.0" text-anchor="end" dominant-baseline="middle" fill="#333">31.59</text>
<text x="382.0" y="214" text-anchor="middle" fill="#333">t [s]</text>
<text transform="translate(14,104.0) rotate(-90)" text-anchor="middle" fill="#333">v [m/s]</text>
<polyline fill="none" stroke="#e08a3c" stroke-width="1.4" points="56.0,31.8 57.9,31.6 59.8,31.6 61.7,31.7 63.6,31.8 65.5,32.0 67.4,32.3 69.3,32.6 71.3,33.0 73.2,33.4 75.1,33.8 77.0,34.3 78.9,34.7 80.8,35.2 82.7,35.7 84.6,36.2 86.5,36.8 88.4,37.3 90.3,37.8 92.2,38.3 94.1,38.9 96.0,39.4 97.9,39.9 99.8,40.4 101.8,41.0 103.7,41.5 105.6,42.0 107.5,42.6 109.4,43.1 111.3,43.6 113.2,44.1 115.1,44.7 117.0,45.2 118.9,45.7 120.8,46.3 122.7,46.8 124.6,47.3 126.5,47.9 128.4,48.4 130.4,48.9 132.3,49.4 134.2,50.0 136.1,50.5 138.0,51.0 139.9,51.6 141.8,52.1 143.7,52.6 145.6,53.1 147.5,53.7 149.4,54.2 151.3,54.7 153.2,55.2 155.1,55.8 157.0,56.3 158.9,56.8 160.9,57.4 162.8,57.9 164.7,58.4 166.6,58.9 168.5,59.5 170.4,60.0 172.3,60.5 174.2,61.0 176.1,61.6 178.0,62.1 179.9,62.6 181.8,63.1 183.7,63.7 185.6,64.2 187.5,64.7 189.5,65.2 191.4,65.8 193.3,66.3 195.2,66.8 197.1,67.3 199.0,67.8 200.9,68.4 202.8,68.9 204.7,69.4 206.6,69.9 208.5,70.5 210.4,71.0 212.3,71.5 214.2,72.0 216.1,72.5 218.0,73.1 220.0,73.6 221.9,74.1 223.8,74.6 225.7,75.1 227.6,75.7 229.5,76.2 231.4,76.7 233.3,77.2 235.2,77.7 237.1,78.3 239.0,78.8 240.9,79.3 242.8,79.8 244.7,80.3 246.6,80.8 248.5,81.4 250.5,81.9 252.4,82.4 254.3,82.9 256.2,83.4 258.1,83.9 260.0,84.5 261.9,85.0 263.8,85.5 265.7,86.0 267.6,86.5 269.5,87.0 271.4,87.5 273.3,88.1 275.2,88.6 277.1,89.1 279.1,89.6 281.0,90.1 282.9,90.6 284.8,91.1 286.7,91.6 288.6,92.2 290.5,92.7 292.4,93.2 294.3,93.7 296.2,94.2 298.1,94.7 300.0,95.2 301.9,95.7 303.8,96.2 305.7,96.8 307.6,97.3 309.6,97.8 311.5,98.3 313.4,98.8 315.3,99.3 317.2,99.8 319.1,100.3 321.0,100.8 322.9,101.3 324.8,101.8 326.7,102.3 328.6,102.8 330.5,103.4 332.4,103.9 334.3,104.4 336.2,104.9 338.2,105.4 340.1,105.9 342.0,106.4 343.9,106.9 345.8,107.4 347.7,107.9 349.6,108.4 351.5,108.9 353.4,109.4 355.3,109.9 357.2,110.4 359.1,110.9 361.0,111.4 362.9,111.9 364.8,112.4 366.7,112.9 368.7,113.4 370.6,113.9 372.5,114.4 374.4,114.9 376.3,115.4 378.2,115.9 380.1,116.4 382.0,116.9 383.9,117.4 385.8,117.9 387.7,118.4 389.6,118.9 391.5,119.4 393.4,119.9 395.3,120.4 397.3,120.9 399.2,121.4 401.1,121.9 403.0,122.4 404.9,122.8 406.8,123.3 408.7,123.8 410.6,124.2 412.5,124.7 414.4,125.2 416.3,125.7 418.2,126.2 420.1,126.7 422.0,127.1 423.9,127.6 425.8,128.1 427.8,128.6 429.7,129.1 431.6,129.6 433.5,130.1 435.4,130.6 437.3,131.1 439.2,131.5 441.1,132.0 443.0,132.5 444.9,133.0 446.8,133.5 448.7,134.0 450.6,134.5 452.5,135.0 454.4,135.5 456.4,136.0 458.3,136.4 460.2,136.9 462.1,137.4 464.0,137.9 465.9,138.4 467.8,138.9 469.7,139.3 471.6,139.8 473.5,140.4 475.4,140.8 477.3,141.3 479.2,141.8 481.1,142.3 483.0,142.8 484.9,143.3 486.9,143.8 488.8,144.2 490.7,144.7 492.6,145.2 494.5,145.7 496.4,146.2 498.3,146.7 500.2,147.2 502.1,147.7 504.0,148.2 505.9,148.7 507.8,149.1 509.7,149.6 511.6,150.1 513.5,150.6 515.5,151.1 517.4,151.5 519.3,152.0 521.2,152.6 523.1,153.1 525.0,153.6 526.9,154.0 528.8,154.5 530.7,155.0 532.6,155.5 534.5,156.0 536.4,156.4 538.3,156.9 540.2,157.5 542.1,158.0 544.0,158.5 546.0,158.9 547.9,159.4 549.8,159.9 551.7,160.4 553.6,160.9 555.5,161.4 557.4,161.8 559.3,162.3 561.2,163.4 563.1,164.0 565.0,163.9 566.9,164.1 568.8,164.8 570.7,166.0 572.6,166.4 574.5,166.4 576.5,166.5 578.4,167.2 580.3,168.4 582.2,169.0 584.1,169.0 586.0,169.1 587.9,169.5 589.8,170.5 591.7,171.6 593.6,171.6 595.5,171.7 597.4,172.0 599.3,172.7 601.2,173.7 603.1,174.6 605.1,175.1 607.0,175.1 608.9,175.4 610.8,176.2 612.7,176.9 614.6,177.6 616.5,178.3 618.4,178.7 620.3,179.0 622.2,179.2 624.1,179.6 626.0,180.3 627.9,180.9 629.8,181.6 631.7,182.1 633.6,182.7 635.6,183.0 637.5,183.2 639.4,183.3 641.3,183.3 643.2,183.4 645.1,183.4 647.0,183.5 648.9,183.5 650.8,183.5 652.7,183.5 654.6,183.6 656.5,183.6 658.4,183.6 660.3,183.7 662.2,183.7 664.2,183.8 666.1,183.8 668.0,183.9 669.9,183.9 671.8,183.9 673.7,184.0 675.6,184.0 677.5,184.1 679.4,184.0 681.3,184.1 683.2,184.1 685.1,184.1 687.0,184.1 688.9,184.1 690.8,184.1 692.7,184.1 694.7,184.1 696.6,184.1 698.5,184.1 700.4,184.1 702.3,184.1 704.2,184.1 706.1,184.1 708.0,184.1"/>
<polyline fill="none" stroke="#3470c0" stroke-width="1.4" points="56.0,31.8 57.9,31.6 59.8,31.6 61.7,31.7 63.6,31.8 65.5,32.0 67.4,32.3 69.3,32.6 71.3,33.0 73.2,33.4 75.1,33.8 77.0,34.3 78.9,34.7 80.8,35.2 82.7,35.7 84.6,36.2 86.5,36.8 88.4,37.2 90.3,37.7 92.2,38.1 94.1,38.5 96.0,38.9 97.9,39.3 99.8,39.7 101.8,40.2 103.7,40.6 105.6,41.0 107.5,41.4 109.4,41.9 111.3,42.3 113.2,42.8 115.1,43.3 117.0,43.8 118.9,44.3 120.8,44.8 122.7,45.3 124.6,45.9 126.5,46.4 128.4,46.9 130.4,47.4 132.3,48.0 134.2,48.5 136.1,49.0 138.0,49.5 139.9,50.1 141.8,50.6 143.7,51.1 145.6,51.7 147.5,52.2 149.4,52.7 151.3,53.2 153.2,53.8 155.1,54.3 157.0,54.8 158.9,55.3 160.9,55.9 162.8,56.4 164.7,56.9 166.6,57.5 168.5,58.0 170.4,58.5 172.3,59.0 174.2,59.6 176.1,60.1 178.0,60.6 179.9,61.1 181.8,61.7 183.7,62.2 185.6,62.7 187.5,63.2 189.5,63.8 191.4,64.3 193.3,64.8 195.2,65.3 197.1,65.9 199.0,66.4 200.9,66.9 202.8,67.4 204.7,67.9 206.6,68.5 208.5,69.0 210.4,69.5 212.3,70.0 214.2,70.6 216.1,71.1 218.0,71.6 220.0,72.1 221.9,72.6 223.8,73.2 225.7,73.7 227.6,74.2 229.5,74.7 231.4,75.2 233.3,75.8 235.2,76.3 237.1,76.8 239.0,77.3 240.9,77.8 242.8,78.4 244.7,78.9 246.6,79.4 248.5,79.9 250.5,80.4 252.4,80.9 254.3,81.5 256.2,82.0 258.1,82.5 260.0,83.0 261.9,83.5 263.8,84.0 265.7,84.6 267.6,85.1 269.5,85.6 271.4,86.1 273.3,86.6 275.2,87.1 277.1,87.6 279.1,88.2 281.0,88.7 282.9,89.2 284.8,89.7 286.7,90.2 288.6,90.7 290.5,91.2 292.4,91.7 294.3,92.3 296.2,92.8 298.1,93.3 300.0,93.8 301.9,94.3 303.8,94.8 305.7,95.3 307.6,95.8 309.6,96.3 311.5,96.9 313.4,97.4 315.3,97.9 317.2,98.4 319.1,98.9 321.0,99.4 322.9,99.9 324.8,100.4 326.7,100.9 328.6,101.4 330.5,101.9 332.4,102.4 334.3,102.9 336.2,103.5 338.2,104.0 340.1,104.5 342.0,105.0 343.9,105.5 345.8,106.0 347.7,106.5 349.6,107.0 351.5,107.5 353.4,108.0 355.3,108.5 357.2,109.0 359.1,109.5 361.0,110.0 362.9,110.5 364.8,111.0 366.7,111.5 368.7,112.0 370.6,112.5 372.5,113.0 374.4,113.5 376.3,114.0 378.2,114.5 380.1,115.0 382.0,115.5 383.9,116.0 385.8,116.5 387.7,117.0 389.6,117.5 391.5,118.0 393.4,118.5 395.3,119.0 397.3,119.5 399.2,120.0 401.1,120.5 403.0,121.0 404.9,121.4 406.8,121.9 408.7,122.4 410.6,122.9 412.5,123.3 414.4,123.8 416.3,124.3 418.2,124.8 420.1,125.3 422.0,125.8 423.9,126.3 425.8,126.8 427.8,127.2 429.7,127.7 431.6,128.2 433.5,128.7 435.4,129.2 437.3,129.7 439.2,130.2 441.1,130.7 443.0,131.2 444.9,131.6 446.8,132.1 448.7,132.6 450.6,133.1 452.5,133.6 454.4,134.1 456.4,134.6 458.3,135.0 460.2,135.6 462.1,136.0 464.0,136.5 465.9,137.0 467.8,137.5 469.7,138.0 471.6,138.5 473.5,139.0 475.4,139.4 477.3,139.9 479.2,140.5 481.1,140.9 483.0,141.4 484.9,141.9 486.9,142.4 488.8,142.9 490.7,143.4 492.6,143.9 494.5,144.3 496.4,144.8 498.3,145.3 500.2,145.8 502.1,146.3 504.0,146.8 505.9,147.3 507.8,147.8 509.7,148.3 511.6,148.8 513.5,149.2 515.5,149.7 517.4,150.2 519.3,150.7 521.2,151.2 523.1,151.6 525.0,152.1 526.9,152.7 528.8,153.2 530.7,153.6 532.6,154.1 534.5,154.6 536.4,155.1 538.3,155.6 540.2,156.1 542.1,156.5 544.0,157.0 546.0,157.5 547.9,158.1 549.8,158.4 551.7,158.7 553.6,158.9 555.5,159.4 557.4,160.1 559.3,160.6 561.2,160.9 563.1,161.2 565.0,161.5 566.9,161.8 568.8,162.5 570.7,163.6 572.6,163.8 574.5,163.8 576.5,164.1 578.4,165.1 580.3,166.2 582.2,166.3 584.1,166.3 586.0,166.6 587.9,167.4 589.8,168.6 591.7,169.0 593.6,169.0 595.5,169.0 597.4,169.6 599.3,169.9 601.2,170.3 603.1,170.7 605.1,170.8 607.0,171.0 608.9,171.3 610.8,171.6 612.7,172.1 614.6,172.4 616.5,172.7 618.4,173.0 620.3,173.3 622.2,173.7 624.1,173.9 626.0,174.3 627.9,174.5 629.8,174.7 631.7,175.4 633.6,175.8 635.6,176.2 637.5,176.5 639.4,176.8 641.3,177.1 643.2,177.4 645.1,177.8 647.0,178.0 648.9,178.6 650.8,179.3 652.7,180.0 654.6,180.7 656.5,181.0 658.4,181.3 660.3,181.5 662.2,181.9 664.2,182.3 666.1,182.7 668.0,183.2 669.9,183.2 671.8,183.4 673.7,183.4 675.6,183.5 677.5,183.4 679.4,183.5 681.3,183.6 683.2,183.5 685.1,183.7 687.0,183.5 688.9,183.7 690.8,183.7 692.7,183.8 694.7,183.8 696.6,183.8 698.5,184.0 700.4,183.9 702.3,184.0 704.2,183.9 706.1,184.0 708.0,184.0"/>
<rect x="64" y="29" width="10" height="3" fill="#3470c0"/>
<text x="78" y="35" fill="#222">BTCM-on</text>
<rect x="64" y="42" width="10" height="3" fill="#e08a3c"/>
<text x="78" y="48" fill="#222">BTCM-off</text>
</svg>
