<svg xmlns="http://www.w3.org/2000/svg" viewBox="0 0 720 220" width="720" height="220" font-family="ui-monospace,Consolas,Menlo,monospace" font-size="11">
<rect width="100%" height="100%" fill="#ffffff"/>
<text x="360.0" y="14" text-anchor="middle" font-size="12" font-weight="bold">low_mu — vehicle speed during brake event</text>
<rect x="56" y="24" width="652" height="160" fill="none" stroke="#444" stroke-width="0.5"/>
<line x1="56.0" y1="184" x2="56.0" y2="187" stroke="#444"/>
<text x="56.0" y="198" text-anchor="middle" fill="#333">38.29</text>
<line x1="186.4" y1="184" x2="186.4" y2="187" stroke="#444"/>
<text x="186.4" y="198" text-anchor="middle" fill="#333">41.64</text>
<line x1="316.8" y1="184" x2="316.8" y2="187" stroke="#444"/>
<text x="316.8" y="198" text-anchor="middle" fill="#333">44.98</text>
<line x1="447.2" y1="184" x2="447.2" y2="187" stroke="#444"/>
<text x="447.2" y="198" text-anchor="middle" fill="#333">48.33</text>
<line x1="577.6" y1="184" x2="577.6" y2="187" stroke="#444"/>
<text x="577.6" y="198" text-anchor="middle" fill="#333">51.68</text>
<line x1="708.0" y1="184" x2="708.0" y2="187" stroke="#444"/>
<text x="708.0" y="198" text-anchor="middle" fill="#333">55.02</text>
<line x1="53" y1="184.0" x2="56" y2="184.0" stroke="#444"/>
<text x="51" y="184.0" text-anchor="end" dominant-baseline="middle" fill="#333">0.00</text>
<line x1="53" y1="152.0" x2="56" y2="152.0" stroke="#444"/>
<text x="51" y="152.0" text-anchor="end" dominant-baseline="middle" fill="#333">7.66</text>
<line x1="53" y1="120.0" x2="56" y2="120.0" stroke="#444"/>
<text x="51" y="120.0" text-anchor="end" dominant-baseline="middle" fill="#333">15.31</text>
<line x1="53" y1="88.0" x2="56" y2="88.0" stroke="#444"/>
<text x="51" y="88.0" text-anchor="end" dominant-baseline="middle" fill="#333">22.97</text>
<line x1="53" y1="56.0" x2="56" y2="56.0" stroke="#444"/>
<text x="51" y="56.0" text-anchor="end" dominant-baseline="middle" fill="#333">30.63</text>
<line x1="53" y1="24.0" x2="56" y2="24.0" stroke="#444"/>
<text x="51" y="24.0" text-anchor="end" dominant-baseline="middle" fill="#333">38.28</text>
<text x="382.0" y="214" text-anchor="middle" fill="#333">t [s]</text>
<text transform="translate(14,104.0) rotate(-90)" text-anchor="middle" fill="#333">v [m/s]</text>
<polyline fill="none" stroke="#e08a3c" stroke-width="1.4" points="56.0,121.3 57.2,121.2 58.5,121.1 59.7,121.1 61.0,121.0 62.2,121.0 63.5,120.9 64.7,120.9 66.0,120.8 67.2,120.8 68.5,120.7 69.7,120.7 71.0,120.6 72.2,120.5 73.5,120.5 74.7,120.4 75.9,120.4 77.2,120.3 78.4,120.3 79.7,120.2 80.9,120.2 82.2,120.1 83.4,120.0 84.7,120.0 85.9,119.9 87.2,119.9 88.4,119.8 89.7,119.8 90.9,119.7 92.2,119.7 93.4,119.6 94.6,119.6 95.9,119.5 97.1,119.4 98.4,119.4 99.6,119.3 100.9,119.3 102.1,119.2 103.4,119.2 104.6,119.1 105.9,119.1 107.1,119.0 108.4,118.9 109.6,118.9 110.9,118.8 112.1,118.8 113.3,118.7 114.6,118.7 115.8,118.6 117.1,118.6 118.3,118.5 119.6,118.4 120.8,118.4 122.1,118.3 123.3,118.3 124.6,118.2 125.8,118.2 127.1,118.1 128.3,118.1 129.6,118.0 130.8,117.9 132.0,117.9 133.3,117.8 134.5,117.8 135.8,117.7 137.0,117.7 138.3,117.6 139.5,117.6 140.8,117.5 142.0,117.4 143.3,117.4 144.5,117.3 145.8,117.3 147.0,117.2 148.3,117.2 149.5,117.1 150.7,117.1 152.0,117.0 153.2,116.9 154.5,116.9 155.7,116.8 157.0,116.8 158.2,116.7 159.5,116.7 160.7,116.6 162.0,116.6 163.2,116.5 164.5,116.4 165.7,116.4 167.0,116.3 168.2,116.3 169.4,116.2 170.7,116.2 171.9,116.1 173.2,116.1 174.4,116.0 175.7,115.9 176.9,115.9 178.2,115.8 179.4,115.8 180.7,115.7 181.9,115.7 183.2,115.6 184.4,115.6 185.7,115.5 186.9,115.5 188.1,115.4 189.4,115.3 190.6,115.3 191.9,115.2 193.1,115.2 194.4,115.1 195.6,115.1 196.9,115.0 198.1,115.0 199.4,114.9 200.6,114.8 201.9,114.8 203.1,114.7 204.4,114.7 205.6,114.6 206.8,114.6 208.1,114.5 209.3,114.5 210.6,114.4 211.8,114.3 213.1,114.3 214.3,114.2 215.6,114.2 216.8,114.1 218.1,114.1 219.3,114.0 220.6,114.0 221.8,113.9 223.1,113.8 224.3,113.8 225.5,113.7 226.8,113.7 228.0,113.6 229.3,113.6 230.5,113.5 231.8,113.5 233.0,113.4 234.3,113.3 235.5,113.3 236.8,113.2 238.0,113.2 239.3,113.1 240.5,113.1 241.8,113.0 243.0,113.0 244.2,112.9 245.5,112.8 246.7,112.8 248.0,112.7 249.2,112.7 250.5,112.6 251.7,112.6 253.0,112.5 254.2,112.5 255.5,112.4 256.7,112.3 258.0,112.3 259.2,112.2 260.5,112.2 261.7,112.1 262.9,112.1 264.2,112.0 265.4,112.0 266.7,111.9 267.9,111.9 269.2,111.8 270.4,111.7 271.7,111.7 272.9,111.6 274.2,111.6 275.4,111.5 276.7,111.5 277.9,111.4 279.2,111.4 280.4,111.3 281.6,111.2 282.9,111.2 284.1,111.1 285.4,111.1 286.6,111.0 287.9,111.0 289.1,110.9 290.4,110.9 291.6,110.8 292.9,110.7 294.1,110.7 295.4,110.6 296.6,110.6 297.9,110.5 299.1,110.5 300.3,110.4 301.6,110.4 302.8,110.3 304.1,110.2 305.3,110.2 306.6,110.1 307.8,110.1 309.1,110.0 310.3,110.0 311.6,109.9 312.8,109.9 314.1,109.8 315.3,109.7 316.6,109.7 317.8,109.6 319.0,109.6 320.3,109.5 321.5,109.5 322.8,109.4 324.0,109.4 325.3,109.3 326.5,109.2 327.8,109.2 329.0,109.1 330.3,109.1 331.5,109.0 332.8,109.0 334.0,108.9 335.3,108.9 336.5,108.8 337.7,108.8 339.0,108.7 340.2,108.6 341.5,108.6 342.7,108.5 344.0,108.5 345.2,108.4 346.5,108.4 347.7,108.0 349.0,107.4 350.2,107.0 351.5,106.6 352.7,106.2 354.0,105.9 355.2,105.5 356.4,105.0 357.7,104.6 358.9,104.1 360.2,103.6 361.4,103.2 362.7,102.7 363.9,102.2 365.2,101.8 366.4,101.3 367.7,100.9 368.9,100.4 370.2,100.0 371.4,99.5 372.7,99.0 373.9,98.5 375.1,98.0 376.4,97.5 377.6,97.0 378.9,96.5 380.1,96.2 381.4,95.8 382.6,95.4 383.9,94.9 385.1,94.5 386.4,94.1 387.6,93.6 388.9,93.2 390.1,92.8 391.3,92.4 392.6,92.0 393.8,91.5 395.1,91.1 396.3,90.6 397.6,90.2 398.8,89.8 400.1,89.3 401.3,88.9 402.6,88.4 403.8,88.0 405.1,87.5 406.3,87.0 407.6,86.6 408.8,86.1 410.0,85.6 411.3,85.1 412.5,84.6 413.8,84.1 415.0,83.6 416.3,83.1 417.5,82.5 418.8,82.0 420.0,81.4 421.3,80.9 422.5,80.5 423.8,80.2 425.0,80.1 426.3,80.0 427.5,80.1 428.7,80.2 430.0,80.4 431.2,80.6 432.5,80.9 433.7,81.2 435.0,81.6 436.2,81.9 437.5,82.3 438.7,82.8 440.0,83.2 441.2,83.6 442.5,84.0 443.7,84.4 445.0,84.9 446.2,85.3 447.4,85.7 448.7,86.1 449.9,86.6 451.2,87.0 452.4,87.4 453.7,87.9 454.9,88.3 456.2,88.7 457.4,89.2 458.7,89.6 459.9,90.0 461.2,90.4 462.4,90.9 463.7,91.3 464.9,91.7 466.1,92.2 467.4,92.6 468.6,93.0 469.9,93.5 471.1,93.9 472.4,94.3 473.6,94.7 474.9,95.2 476.1,95.6 477.4,96.0 478.6,96.5 479.9,96.9 481.1,97.3 482.4,97.7 483.6,98.2 484.8,98.6 486.1,99.0 487.3,99.4 488.6,99.9 489.8,100.3 491.1,100.7 492.3,101.1 493.6,101.6 494.8,102.0 496.1,102.4 497.3,102.8 498.6,103.3 499.8,103.7 501.1,104.1 502.3,104.5 503.5,105.0 504.8,105.4 506.0,105.8 507.3,106.2 508.5,106.7 509.8,107.1 511.0,107.5 512.3,107.9 513.5,108.4 514.8,108.8 516.0,109.2 517.3,109.6 518.5,110.0 519.8,110.5 521.0,110.9 522.2,111.3 523.5,111.7 524.7,112.1 526.0,112.6 527.2,113.0 528.5,113.4 529.7,113.8 531.0,114.2 532.2,114.7 533.5,115.1 534.7,115.5 536.0,115.9 537.2,116.3 538.5,116.8 539.7,117.2 540.9,117.6 542.2,118.0 543.4,118.4 544.7,118.8 545.9,119.3 547.2,119.7 548.4,120.1 549.7,120.5 550.9,120.9 552.2,121.3 553.4,121.8 554.7,122.2 555.9,122.6 557.2,123.0 558.4,123.4 559.6,123.8 560.9,124.2 562.1,124.6 563.4,125.1 564.6,125.5 565.9,125.9 567.1,126.3 568.4,126.7 569.6,127.1 570.9,127.5 572.1,127.9 573.4,128.4 574.6,128.8 575.9,129.2 577.1,129.6 578.3,130.0 579.6,130.4 580.8,130.8 582.1,131.2 583.3,131.6 584.6,132.1 585.8,132.5 587.1,132.9 588.3,133.3 589.6,133.7 590.8,134.1 592.1,134.5 593.3,134.9 594.6,135.3 595.8,135.7 597.0,136.1 598.3,136.5 599.5,136.9 600.8,137.3 602.0,137.7 603.3,138.1 604.5,138.5 605.8,138.9 607.0,139.3 608.3,139.7 609.5,140.1 610.8,140.5 612.0,140.9 613.3,141.3 614.5,141.7 615.7,142.1 617.0,142.5 618.2,142.9 619.5,143.3 620.7,143.8 622.0,144.2 623.2,144.6 624.5,145.0 625.7,145.4 627.0,145.8 628.2,146.2 629.5,146.6 630.7,147.0 632.0,147.4 633.2,147.8 634.4,148.2 635.7,148.6 636.9,149.0 638.2,149.4 639.4,149.8 640.7,150.2 641.9,150.6 643.2,151.0 644.4,151.4 645.7,151.8 646.9,152.3 648.2,152.6 649.4,153.0 650.7,153.4 651.9,153.9 653.1,154.3 654.4,154.7 655.6,155.1 656.9,155.5 658.1,155.9 659.4,156.3 660.6,156.7 661.9,157.1 663.1,157.5 664.4,157.9 665.6,158.3 666.9,158.7 668.1,159.1 669.4,159.5 670.6,159.9 671.8,160.3 673.1,160.8 674.3,161.1 675.6,161.5 676.8,162.0 678.1,162.5 679.3,162.8 680.6,163.0 681.8,163.7 683.1,164.4 684.3,164.5 685.6,164.7 686.8,165.1 688.1,166.0 689.3,166.6 690.5,166.5 691.8,166.7 693.0,167.1 694.3,168.0 695.5,168.6 696.8,168.5 698.0,168.6 699.3,169.2 700.5,170.1 701.8,170.5 703.0,170.5 704.3,170.7 705.5,171.2 706.8,172.0 708.0,172.7"/>
<polyline fill="none" stroke="#3470c0" stroke-width="1.4" points="56.0,121.3 57.2,121.2 58.5,121.1 59.7,121.1 61.0,121.0 62.2,121.0 63.5,120.9 64.7,120.9 66.0,120.8 67.2,120.8 68.5,120.7 69.7,120.7 71.0,120.6 72.2,120.5 73.5,120.5 74.7,120.4 75.9,120.4 77.2,120.3 78.4,120.3 79.7,120.2 80.9,120.2 82.2,120.1 83.4,120.0 84.7,120.0 85.9,119.9 87.2,119.9 88.4,119.8 89.7,119.8 90.9,119.7 92.2,119.7 93.4,119.6 94.6,119.6 95.9,119.5 97.1,119.4 98.4,119.4 99.6,119.3 100.9,119.3 102.1,119.2 103.4,119.1 104.6,119.1 105.9,119.0 107.1,119.0 108.4,118.9 109.6,118.9 110.9,118.8 112.1,118.8 113.3,118.7 114.6,118.7 115.8,118.6 117.1,118.6 118.3,118.5 119.6,118.5 120.8,118.4 122.1,118.3 123.3,118.3 124.6,118.2 125.8,118.2 127.1,118.1 128.3,118.1 129.6,118.0 130.8,117.9 132.0,117.9 133.3,117.8 134.5,117.8 135.8,117.7 137.0,117.7 138.3,117.6 139.5,117.6 140.8,117.5 142.0,117.5 143.3,117.4 144.5,117.4 145.8,117.3 147.0,117.2 148.3,117.2 149.5,117.1 150.7,117.1 152.0,117.0 153.2,116.9 154.5,116.9 155.7,116.8 157.0,116.8 158.2,116.7 159.5,116.7 160.7,116.6 162.0,116.6 163.2,116.5 164.5,116.5 165.7,116.4 167.0,116.3 168.2,116.3 169.4,116.2 170.7,116.2 171.9,116.1 173.2,116.1 174.4,116.0 175.7,116.0 176.9,115.9 178.2,115.9 179.4,115.8 180.7,115.7 181.9,115.7 183.2,115.6 184.4,115.6 185.7,115.5 186.9,115.5 188.1,115.4 189.4,115.4 190.6,115.3 191.9,115.2 193.1,115.2 194.4,115.1 195.6,115.1 196.9,115.0 198.1,115.0 199.4,114.9 200.6,114.9 201.9,114.8 203.1,114.7 204.4,114.7 205.6,114.6 206.8,114.6 208.1,114.5 209.3,114.5 210.6,114.4 211.8,114.4 213.1,114.3 214.3,114.2 215.6,114.2 216.8,114.1 218.1,114.1 219.3,114.0 220.6,114.0 221.8,113.9 223.1,113.9 224.3,113.8 225.5,113.7 226.8,113.7 228.0,113.6 229.3,113.6 230.5,113.5 231.8,113.5 233.0,113.4 234.3,113.4 235.5,113.3 236.8,113.3 238.0,113.2 239.3,113.1 240.5,113.1 241.8,113.0 243.0,113.0 244.2,112.9 245.5,112.9 246.7,112.8 248.0,112.8 249.2,112.7 250.5,112.6 251.7,112.6 253.0,112.5 254.2,112.5 255.5,112.4 256.7,112.4 258.0,112.3 259.2,112.3 260.5,112.2 261.7,112.1 262.9,112.1 264.2,112.0 265.4,112.0 266.7,111.9 267.9,111.9 269.2,111.8 270.4,111.8 271.7,111.7 272.9,111.6 274.2,111.6 275.4,111.5 276.7,111.5 277.9,111.4 279.2,111.4 280.4,111.3 281.6,111.3 282.9,111.2 284.1,111.2 285.4,111.1 286.6,111.0 287.9,111.0 289.1,110.9 290.4,110.9 291.6,110.8 292.9,110.8 294.1,110.7 295.4,110.7 296.6,110.6 297.9,110.5 299.1,110.5 300.3,110.4 301.6,110.4 302.8,110.3 304.1,110.3 305.3,110.2 306.6,110.2 307.8,110.1 309.1,110.0 310.3,110.0 311.6,109.9 312.8,109.9 314.1,109.8 315.3,109.8 316.6,109.7 317.8,109.7 319.0,109.6 320.3,109.6 321.5,109.5 322.8,109.4 324.0,109.4 325.3,109.3 326.5,109.3 327.8,109.2 329.0,109.2 330.3,109.1 331.5,109.0 332.8,109.0 334.0,108.9 335.3,108.9 336.5,108.8 337.7,108.8 339.0,108.7 340.2,108.7 341.5,108.6 342.7,108.6 344.0,108.5 345.2,108.4 346.5,108.4 347.7,108.1 349.0,107.5 350.2,107.0 351.5,106.7 352.7,106.3 354.0,105.9 355.2,105.5 356.4,105.1 357.7,104.6 358.9,104.2 360.2,103.7 361.4,103.3 362.7,102.8 363.9,102.4 365.2,101.9 366.4,101.5 367.7,101.1 368.9,100.6 370.2,100.2 371.4,99.7 372.7,99.3 373.9,98.8 375.1,98.4 376.4,98.0 377.6,97.5 378.9,97.1 380.1,96.6 381.4,96.1 382.6,95.7 383.9,95.3 385.1,94.8 386.4,94.4 387.6,93.9 388.9,93.5 390.1,93.1 391.3,92.6 392.6,92.2 393.8,91.8 395.1,91.3 396.3,90.9 397.6,90.4 398.8,90.0 400.1,89.5 401.3,89.1 402.6,88.6 403.8,88.2 405.1,87.7 406.3,87.3 407.6,86.8 408.8,86.3 410.0,85.9 411.3,85.4 412.5,85.0 413.8,84.5 415.0,84.1 416.3,83.6 417.5,83.1 418.8,82.7 420.0,82.2 421.3,81.7 422.5,81.2 423.8,80.8 425.0,80.3 426.3,79.8 427.5,79.3 428.7,78.7 430.0,78.2 431.2,77.8 432.5,77.4 433.7,76.9 435.0,76.4 436.2,75.8 437.5,75.3 438.7,74.9 440.0,74.4 441.2,74.0 442.5,73.5 443.7,73.1 445.0,72.6 446.2,72.1 447.4,71.7 448.7,71.2 449.9,70.8 451.2,70.3 452.4,69.9 453.7,69.4 454.9,68.9 456.2,68.5 457.4,68.0 458.7,67.6 459.9,67.1 461.2,66.6 462.4,66.2 463.7,65.7 464.9,65.2 466.1,64.8 467.4,64.3 468.6,63.8 469.9,63.4 471.1,62.9 472.4,62.4 473.6,61.9 474.9,61.5 476.1,61.0 477.4,60.5 478.6,60.0 479.9,59.6 481.1,59.1 482.4,58.6 483.6,58.1 484.8,57.6 486.1,57.1 487.3,56.6 488.6,56.1 489.8,55.6 491.1,55.1 492.3,54.6 493.6,54.1 494.8,53.6 496.1,53.1 497.3,52.6 498.6,52.1 499.8,51.6 501.1,51.1 502.3,50.6 503.5,50.0 504.8,49.5 506.0,48.9 507.3,48.4 508.5,47.9 509.8,47.4 511.0,46.9 512.3,46.5 513.5,46.0 514.8,45.5 516.0,45.0 517.3,44.5 518.5,44.0 519.8,43.5 521.0,43.0 522.2,42.5 523.5,41.9 524.7,41.4 526.0,40.8 527.2,40.3 528.5,39.7 529.7,39.2 531.0,38.6 532.2,38.0 533.5,37.4 534.7,36.8 536.0,36.3 537.2,35.7 538.5,35.2 539.7,34.7 540.9,34.2 542.2,33.8 543.4,33.4 544.7,33.0 545.9,32.7 547.2,32.4 548.4,32.2 549.7,32.0 550.9,31.9 552.2,31.8 553.4,31.7 554.7,31.7 555.9,31.6 557.2,31.6 558.4,31.6 559.6,31.6 560.9,31.7 562.1,31.7 563.4,31.7 564.6,31.8 565.9,31.8 567.1,31.9 568.4,31.9 569.6,32.0 570.9,32.1 572.1,32.1 573.4,32.2 574.6,32.3 575.9,32.3 577.1,32.4 578.3,32.5 579.6,32.5 580.8,32.6 582.1,32.7 583.3,32.8 584.6,32.8 585.8,32.9 587.1,33.0 588.3,33.1 589.6,33.2 590.8,33.2 592.1,33.3 593.3,33.4 594.6,33.5 595.8,33.5 597.0,33.6 598.3,33.7 599.5,33.8 600.8,33.9 602.0,33.9 603.3,34.0 604.5,34.1 605.8,34.2 607.0,34.2 608.3,34.3 609.5,34.4 610.8,34.5 612.0,34.5 613.3,34.6 614.5,34.7 615.7,34.8 617.0,34.9 618.2,34.9 619.5,35.0 620.7,35.1 622.0,35.2 623.2,35.2 624.5,35.3 625.7,35.4 627.0,35.5 628.2,35.5 629.5,35.6 630.7,35.7 632.0,35.8 633.2,35.8 634.4,35.9 635.7,36.0 636.9,36.1 638.2,36.1 639.4,36.2 640.7,36.3 641.9,36.4 643.2,36.5 644.4,36.5 645.7,36.6 646.9,36.7 648.2,36.8 649.4,36.8 650.7,36.9 651.9,37.0 653.1,37.0 654.4,37.1 655.6,37.2 656.9,37.3 658.1,37.3 659.4,37.4 660.6,37.5 661.9,37.6 663.1,37.6 664.4,37.7 665.6,37.8 666.9,37.9 668.1,37.9 669.4,38.0 670.6,38.1 671.8,38.2 673.1,38.2 674.3,38.3 675.6,38.4 676.8,38.4 678.1,38.5 679.3,38.6 680.6,38.7 681.8,38.7 683.1,38.8 684.3,38.9 685.6,39.0 686.8,39.0 688.1,39.1 689.3,39.2 690.5,39.2 691.8,39.3 693.0,39.4 694.3,39.5 695.5,39.5 696.8,39.6 698.0,39.7 699.3,39.7 700.5,39.8 701.8,39.9 703.0,40.0 704.3,40.0 705.5,40.1 706.8,40.2 708.0,40.2"/>
<rect x="64" y="29" width="10" height="3" fill="#3470c0"/>
<text x="78" y="35" fill="#222">BTCM-on</text>
<rect x="64" y="42" width="10" height="3" fill="#e08a3c"/>
<text x="78" y="48" fill="#222">BTCM-off</text>
</svg>
