<svg xmlns="http://www.w3.org/2000/svg" viewBox="0 0 720 180" width="720" height="180" font-family="ui-monospace,Consolas,Menlo,monospace" font-size="11">
<rect width="100%" height="100%" fill="#ffffff"/>
<text x="360.0" y="14" text-anchor="middle" font-size="12" font-weight="bold">low_mu — BTCM-side accelerometer reading</text>
<rect x="56" y="24" width="652" height="120" fill="none" stroke="#444" stroke-width="0.5"/>
<line x1="56.0" y1="144" x2="56.0" y2="147" stroke="#444"/>
<text x="56.0" y="158" text-anchor="middle" fill="#333">0.00</text>
<line x1="186.4" y1="144" x2="186.4" y2="147" stroke="#444"/>
<text x="186.4" y="158" text-anchor="middle" fill="#333">3.55</text>
<line x1="316.8" y1="144" x2="316.8" y2="147" stroke="#444"/>
<text x="316.8" y="158" text-anchor="middle" fill="#333">7.10</text>
<line x1="447.2" y1="144" x2="447.2" y2="147" stroke="#444"/>
<text x="447.2" y="158" text-anchor="middle" fill="#333">10.66</text>
<line x1="577.6" y1="144" x2="577.6" y2="147" stroke="#444"/>
<text x="577.6" y="158" text-anchor="middle" fill="#333">14.21</text>
<line x1="708.0" y1="144" x2="708.0" y2="147" stroke="#444"/>
<text x="708.0" y="158" text-anchor="middle" fill="#333">17.76</text>
<line x1="53" y1="144.0" x2="56" y2="144.0" stroke="#444"/>
<text x="51" y="144.0" text-anchor="end" dominant-baseline="middle" fill="#333">-9.83</text>
<line x1="53" y1="120.0" x2="56" y2="120.0" stroke="#444"/>
<text x="51" y="120.0" text-anchor="end" dominant-baseline="middle" fill="#333">-5.90</text>
<line x1="53" y1="96.0" x2="56" y2="96.0" stroke="#444"/>
<text x="51" y="96.0" text-anchor="end" dominant-baseline="middle" fill="#333">-1.97</text>
<line x1="53" y1="72.0" x2="56" y2="72.0" stroke="#444"/>
<text x="51" y="72.0" text-anchor="end" dominant-baseline="middle" fill="#333">1.97</text>
<line x1="53" y1="48.0" x2="56" y2="48.0" stroke="#444"/>
<text x="51" y="48.0" text-anchor="end" dominant-baseline="middle" fill="#333">5.90</text>
<line x1="53" y1="24.0" x2="56" y2="24.0" stroke="#444"/>
<text x="51" y="24.0" text-anchor="end" dominant-baseline="middle" fill="#333">9.83</text>
<text x="382.0" y="174" text-anchor="middle" fill="#333">t since brake-on [s]</text>
<text transform="translate(14,84.0) rotate(-90)" text-anchor="middle" fill="#333">longit accel [m/s²]</text>
<line x1="56.0" y1="84.0" x2="708.0" y2="84.0" stroke="#666" stroke-width="0.7" stroke-dasharray="1 0"/>
<polyline fill="none" stroke="#3470c0" stroke-width="1.2" points="56.0,81.7 56.8,81.9 57.5,82.6 58.3,81.3 59.0,81.7 59.7,81.4 60.5,81.6 61.2,80.4 62.0,81.4 62.8,81.6 63.5,81.8 64.3,79.4 65.0,81.6 65.8,81.7 66.5,81.7 67.3,81.5 68.0,81.3 68.8,81.6 69.5,81.8 70.3,82.4 71.0,81.2 71.8,82.7 72.5,81.5 73.3,81.6 74.0,81.7 74.8,81.8 75.5,80.8 76.3,82.1 77.0,82.1 77.8,80.7 78.6,81.3 79.3,82.3 80.1,81.1 80.9,81.6 81.6,82.3 82.4,81.6 83.2,81.4 83.9,81.2 84.7,81.5 85.4,81.3 86.2,82.8 86.9,81.1 87.7,81.1 88.5,80.2 89.2,81.7 90.0,82.6 90.7,81.6 91.5,82.7 92.2,81.8 93.0,81.9 93.8,81.6 94.5,81.3 95.2,81.3 96.0,80.9 96.8,82.0 97.5,80.2 98.3,81.5 99.0,81.3 99.8,80.9 100.6,81.9 101.3,81.2 102.0,81.3 102.8,81.0 103.5,82.6 104.3,82.3 105.0,82.1 105.8,81.6 106.5,82.3 107.2,81.3 108.0,81.9 108.7,81.9 109.5,80.9 110.3,80.2 111.0,81.7 111.8,81.8 112.5,81.3 113.3,82.1 114.1,81.7 114.8,80.9 115.6,81.0 116.3,81.9 117.1,81.6 117.9,79.6 118.6,81.3 119.4,81.0 120.2,82.9 120.9,81.4 121.7,80.8 122.4,80.8 123.2,82.2 123.9,81.3 124.7,81.5 125.4,81.8 126.2,81.3 127.0,82.3 127.7,80.9 128.5,81.1 129.2,81.1 130.0,81.6 130.7,82.0 131.5,80.4 132.2,81.6 133.0,81.6 133.7,81.3 134.5,81.8 135.2,81.7 136.0,81.6 136.8,81.6 137.5,80.9 138.3,82.5 139.0,81.4 139.8,81.8 140.6,81.7 141.3,81.3 142.1,81.4 142.8,81.9 143.6,80.7 144.3,82.2 145.1,81.3 145.8,81.1 146.6,81.5 147.3,81.7 148.1,81.6 148.8,81.4 149.6,82.2 150.4,81.2 151.1,81.6 151.9,81.9 152.6,80.5 153.4,82.1 154.1,80.6 154.9,81.8 155.6,80.9 156.4,81.3 157.1,80.3 157.9,81.3 158.6,81.8 159.4,82.1 160.2,81.1 160.9,81.4 161.7,81.0 162.4,81.8 163.1,81.7 163.9,81.9 164.7,80.3 165.4,81.4 166.2,81.6 166.9,80.7 167.7,81.6 168.4,80.9 169.2,82.7 169.9,82.1 170.7,81.9 171.4,82.6 172.2,82.3 172.9,80.5 173.7,80.9 174.4,80.8 175.2,81.5 175.9,81.1 176.7,81.7 177.4,81.3 178.1,81.6 178.9,81.8 179.7,81.9 180.4,81.9 181.2,81.5 181.9,82.0 182.7,80.5 183.4,81.4 184.2,79.3 185.0,81.4 185.7,81.4 186.5,81.4 187.2,81.4 188.0,81.5 188.8,80.1 189.5,83.2 190.3,81.6 191.0,81.9 191.8,80.9 192.5,81.4 193.3,81.9 194.1,80.4 194.8,81.6 195.6,81.5 196.3,81.7 197.0,81.2 197.8,82.5 198.5,82.4 199.3,81.9 200.0,82.0 200.8,82.1 201.6,82.1 202.3,81.3 203.1,81.3 203.8,81.8 204.6,81.4 205.3,81.8 206.1,81.5 206.8,82.2 207.6,81.7 208.3,80.2 209.1,81.3 209.8,81.3 210.6,81.9 211.3,81.4 212.1,81.4 212.9,82.6 213.6,81.8 214.4,80.9 215.1,81.8 215.9,81.0 216.6,80.0 217.4,81.7 218.1,81.4 218.9,81.7 219.7,81.4 220.4,81.1 221.1,81.4 221.9,82.2 222.6,80.6 223.4,81.1 224.1,81.7 224.9,82.1 225.6,81.7 226.4,81.1 227.1,81.8 227.9,82.0 228.6,80.0 229.4,81.2 230.1,81.7 230.9,81.0 231.6,81.6 232.3,81.2 233.1,81.9 233.9,81.9 234.6,82.4 235.4,82.3 236.1,81.3 236.9,81.0 237.6,81.6 238.4,81.5 239.1,81.6 239.9,80.5 240.6,80.3 241.4,80.9 242.1,81.4 242.9,81.5 243.6,82.3 244.4,81.2 245.1,80.9 245.9,82.3 246.6,81.2 247.4,80.9 248.2,80.7 248.9,82.0 249.7,81.3 250.4,81.9 251.2,81.8 251.9,80.6 252.7,80.6 253.4,82.3 254.2,81.4 254.9,81.7 255.7,81.9 256.5,81.5 257.2,80.5 258.0,81.0 258.7,81.5 259.5,82.2 260.2,81.4 261.0,80.9 261.7,80.3 262.5,82.0 263.3,80.5 264.0,81.4 264.8,80.2 265.5,81.9 266.3,81.2 267.1,82.0 267.8,82.0 268.5,80.1 269.3,81.4 270.0,81.7 270.8,82.5 271.5,81.8 272.3,80.4 273.0,82.6 273.8,81.8 274.6,81.3 275.4,81.6 276.1,81.4 276.9,81.5 277.6,81.9 278.4,81.4 279.1,82.4 279.9,81.6 280.7,81.4 281.4,81.4 282.2,81.3 282.9,82.1 283.7,81.7 284.4,81.5 285.2,81.7 285.9,82.2 286.7,81.7 287.4,81.7 288.2,81.7 289.0,80.3 289.7,82.2 290.4,81.3 291.2,77.4 292.0,81.6 292.7,82.1 293.5,83.1 294.2,81.5 295.0,80.8 295.7,82.1 296.5,82.9 297.2,82.0 298.0,81.6 298.7,81.0 299.5,81.6 300.3,81.6 301.0,82.0 301.8,82.2 302.5,81.6 303.3,80.8 304.0,81.6 304.8,82.2 305.5,81.4 306.3,82.1 307.0,82.0 307.8,82.0 308.5,80.9 309.3,81.4 310.0,81.6 310.8,81.4 311.5,81.4 312.2,82.5 313.0,81.6 313.7,81.3 314.5,79.4 315.2,81.6 316.0,81.0 316.7,82.2 317.5,80.4 318.2,82.0 319.0,81.1 319.8,81.6 320.5,81.8 321.3,81.5 322.0,81.4 322.8,81.4 323.5,81.8 324.3,81.5 325.0,81.2 325.8,82.0 326.5,81.5 327.3,81.5 328.1,81.6 328.8,81.3 329.6,81.6 330.3,71.0 331.1,61.8 331.8,63.1 332.6,64.2 333.3,65.2 334.1,63.6 334.8,65.5 335.6,66.8 336.3,65.0 337.1,63.6 337.8,64.9 338.6,63.7 339.3,63.4 340.1,63.8 340.8,61.7 341.6,63.3 342.3,66.4 343.1,64.5 343.8,64.3 344.6,65.0 345.3,63.9 346.1,62.7 346.8,64.3 347.6,64.5 348.3,61.8 349.0,63.5 349.8,63.7 350.5,63.7 351.3,63.5 352.0,64.9 352.8,65.0 353.5,64.4 354.3,63.6 355.1,63.3 355.8,63.8 356.6,61.1 357.3,61.5 358.1,62.9 358.8,62.9 359.6,63.1 360.3,64.3 361.1,63.2 361.8,61.3 362.6,60.4 363.3,63.7 364.1,62.9 364.8,64.2 365.6,64.0 366.3,62.7 367.1,62.8 367.8,62.9 368.6,61.2 369.3,63.2 370.1,63.1 370.8,61.3 371.6,64.1 372.4,63.1 373.1,61.8 373.9,62.8 374.6,59.2 375.4,58.7 376.1,63.8 376.9,61.3 377.6,62.0 378.4,61.5 379.1,63.4 379.9,60.8 380.6,62.9 381.4,62.2 382.1,63.2 382.9,61.3 383.6,60.8 384.4,61.9 385.1,58.2 385.9,60.1 386.7,59.9 387.4,58.9 388.2,60.2 388.9,60.0 389.7,60.0 390.4,57.2 391.2,58.7 391.9,58.1 392.6,59.4 393.4,58.2 394.2,58.1 394.9,57.8 395.7,60.3 396.4,59.1 397.2,60.1 398.0,58.1 398.7,57.0 399.5,53.2 400.2,57.7 401.0,58.0 401.7,58.6 402.4,58.2 403.2,61.6 403.9,62.1 404.7,61.7 405.5,65.3 406.2,67.6 406.9,68.7 407.7,75.1 408.5,78.3 409.2,80.4 410.0,83.6 410.7,88.4 411.5,89.0 412.2,92.3 413.0,95.0 413.7,96.9 414.5,96.9 415.3,99.7 416.0,99.7 416.7,100.1 417.5,101.3 418.2,101.4 419.0,101.7 419.7,102.6 420.5,102.1 421.3,101.8 422.0,102.2 422.8,103.1 423.5,103.1 424.3,103.5 425.0,102.6 425.7,103.3 426.5,103.9 427.2,103.2 428.0,103.8 428.7,103.6 429.5,103.2 430.2,103.5 431.0,102.9 431.7,103.7 432.5,103.7 433.2,104.0 434.0,103.4 434.7,103.6 435.5,103.4 436.2,103.5 437.0,103.9 437.8,103.7 438.5,103.7 439.3,103.4 440.1,103.7 440.8,103.9 441.6,103.8 442.3,103.6 443.1,103.7 443.8,103.6 444.6,104.0 445.3,103.9 446.1,103.6 446.8,103.1 447.6,103.4 448.3,103.6 449.1,103.8 449.8,103.6 450.6,103.6 451.3,103.3 452.1,103.7 452.8,103.6 453.6,103.6 454.3,103.4 455.1,103.5 455.9,103.6 456.6,103.4 457.3,103.6 458.1,104.2 458.8,104.3 459.6,103.5 460.3,103.9 461.1,103.1 461.8,103.4 462.6,103.9 463.3,103.5 464.1,103.0 464.8,103.5 465.6,103.6 466.3,103.5 467.1,103.0 467.8,103.5 468.6,103.3 469.3,103.6 470.1,103.5 470.8,103.7 471.6,103.4 472.3,103.2 473.1,103.3 473.9,103.7 474.6,103.9 475.4,103.3 476.1,103.8 476.8,103.6 477.6,103.5 478.3,103.6 479.1,103.6 479.8,103.2 480.6,103.1 481.3,103.7 482.1,103.6 482.9,103.4 483.6,103.2 484.4,103.4 485.1,103.3 485.9,103.3 486.6,103.6 487.4,103.2 488.1,103.4 488.9,103.6 489.6,103.7 490.4,103.0 491.2,103.3 491.9,103.2 492.7,103.2 493.4,103.1 494.2,103.4 494.9,102.7 495.7,103.4 496.4,103.5 497.2,102.8 497.9,103.4 498.7,102.8 499.4,103.2 500.2,103.3 500.9,103.2 501.7,103.2 502.4,102.9 503.2,103.4 503.9,103.5 504.7,103.2 505.4,103.1 506.2,103.4 506.9,103.2 507.7,103.3 508.4,102.6 509.1,103.4 509.9,103.3 510.7,103.1 511.4,103.3 512.2,103.2 512.9,103.2 513.7,103.2 514.4,103.5 515.2,103.2 515.9,103.1 516.7,103.3 517.5,103.1 518.2,103.5 519.0,102.7 519.7,103.6 520.5,102.9 521.2,103.2 522.0,102.9 522.7,103.3 523.5,103.0 524.2,103.3 525.0,103.0 525.7,102.4 526.5,103.1 527.3,103.2 528.0,102.7 528.8,102.9 529.5,102.8 530.3,102.9 531.0,103.1 531.8,103.1 532.5,103.1 533.3,103.0 534.0,103.2 534.8,102.9 535.5,102.8 536.3,103.1 537.0,102.9 537.8,102.1 538.6,103.1 539.3,103.2 540.1,103.0 540.8,102.3 541.6,103.0 542.3,102.8 543.1,102.5 543.8,102.6 544.6,102.9 545.3,103.1 546.1,103.0 546.8,102.9 547.6,102.9 548.3,102.8 549.1,102.8 549.8,102.6 550.6,103.1 551.3,102.9 552.0,102.9 552.8,102.8 553.5,102.9 554.3,102.8 555.0,103.0 555.8,102.4 556.5,102.5 557.3,102.7 558.0,102.9 558.8,102.7 559.5,103.0 560.3,102.7 561.0,102.6 561.7,102.3 562.5,102.7 563.2,102.8 564.0,102.3 564.7,102.8 565.5,102.8 566.2,102.5 566.9,102.8 567.7,102.8 568.4,102.9 569.2,102.7 569.9,103.0 570.7,103.1 571.4,102.9 572.2,102.8 572.9,102.9 573.6,103.1 574.4,102.7 575.1,102.6 575.9,102.6 576.7,102.7 577.4,102.7 578.2,101.6 578.9,102.5 579.7,101.3 580.4,103.7 581.2,99.1 581.9,101.6 582.7,102.3 583.4,106.2 584.2,99.6 584.9,100.9 585.7,101.1 586.4,107.3 587.1,100.5 587.9,103.5 588.6,99.9 589.4,106.3 590.2,101.3 590.9,100.8 591.6,99.2 592.4,106.0 593.1,101.8 593.9,100.2 594.7,99.2 595.4,105.6 596.1,103.2 596.9,98.7 597.7,99.0 598.4,105.1 599.2,104.0 599.9,105.4 600.7,99.1 601.4,105.0 602.2,97.6 602.9,106.4 603.7,98.9 604.4,104.2 605.2,97.1 605.9,108.1 606.7,98.6 607.4,103.8 608.2,96.9 608.9,108.5 609.7,97.9 610.4,104.6 611.2,96.7 611.9,97.1 612.7,106.2 613.5,102.5 614.2,97.4 615.0,109.9 615.7,105.4 616.5,102.6 617.2,96.7 618.0,110.3 618.8,108.8 619.5,102.9 620.3,93.3 621.0,95.5 621.8,109.0 622.5,104.1 623.2,93.3 624.0,95.1 624.8,106.1 625.5,103.4 626.3,112.1 627.0,95.3 627.8,107.1 628.5,102.4 629.3,112.7 630.0,94.8 630.7,109.4 631.5,102.2 632.2,111.1 632.9,95.0 633.7,106.7 634.5,90.1 635.2,113.8 636.0,95.4 636.7,103.7 637.5,93.2 638.2,113.8 639.0,105.0 639.7,101.6 640.5,100.4 641.2,112.5 642.0,109.5 642.7,97.9 643.5,88.8 644.2,117.3 645.0,115.5 645.7,98.6 646.5,101.2 647.3,86.6 648.0,110.1 648.8,96.9 649.5,100.9 650.3,101.8 651.0,116.3 651.8,99.6 652.5,83.7 653.3,116.7 654.0,119.9 654.8,108.0 655.5,110.1 656.3,81.6 657.1,112.1 657.8,88.1 658.6,99.6 659.3,95.1 660.1,115.0 660.8,85.4 661.6,113.0 662.3,101.1 663.1,119.2 663.8,105.7 664.5,120.7 665.3,79.9 666.0,116.7 666.8,116.3 667.5,103.0 668.3,101.3 669.0,113.8 669.8,85.7 670.5,82.7 671.3,84.5 672.1,100.7 672.8,136.2 673.6,105.6 674.3,54.7 675.1,102.7 675.8,121.4 676.6,51.9 677.3,87.6 678.0,110.8 678.8,112.8 679.6,56.8 680.3,99.4 681.1,110.0 681.8,97.7 682.6,56.6 683.3,112.8 684.1,109.3 684.8,87.6 685.6,53.4 686.3,120.0 687.1,108.3 687.8,82.2 688.6,81.5 689.4,121.5 690.1,91.2 690.8,58.2 691.6,80.8 692.3,122.6 693.1,76.1 693.8,67.2 694.6,79.4 695.3,123.8 696.1,79.0 696.8,79.4 697.6,79.2 698.3,122.7 699.0,65.4 699.8,84.1 700.5,80.3 701.3,121.2 702.0,66.3 702.8,84.4 703.5,80.4 704.3,119.0 705.0,61.4 705.8,85.1 706.5,83.5 707.3,115.2 708.0,57.1"/>
</svg>
