<svg xmlns="http://www.w3.org/2000/svg" viewBox="0 0 720 240" width="720" height="240" font-family="ui-monospace,Consolas,Menlo,monospace" font-size="11">
<rect width="100%" height="100%" fill="#ffffff"/>
<text x="360.0" y="14" text-anchor="middle" font-size="12" font-weight="bold">split_mu — chassis vs per-wheel ground speed (BTCM-on)</text>
<rect x="56" y="24" width="652" height="180" fill="none" stroke="#444" stroke-width="0.5"/>
<line x1="56.0" y1="204" x2="56.0" y2="207" stroke="#444"/>
<text x="56.0" y="218" text-anchor="middle" fill="#333">12.02</text>
<line x1="186.4" y1="204" x2="186.4" y2="207" stroke="#444"/>
<text x="186.4" y="218" text-anchor="middle" fill="#333">14.62</text>
<line x1="316.8" y1="204" x2="316.8" y2="207" stroke="#444"/>
<text x="316.8" y="218" text-anchor="middle" fill="#333">17.23</text>
<line x1="447.2" y1="204" x2="447.2" y2="207" stroke="#444"/>
<text x="447.2" y="218" text-anchor="middle" fill="#333">19.83</text>
<line x1="577.6" y1="204" x2="577.6" y2="207" stroke="#444"/>
<text x="577.6" y="218" text-anchor="middle" fill="#333">22.44</text>
<line x1="708.0" y1="204" x2="708.0" y2="207" stroke="#444"/>
<text x="708.0" y="218" text-anchor="middle" fill="#333">25.04</text>
<line x1="53" y1="204.0" x2="56" y2="204.0" stroke="#444"/>
<text x="51" y="204.0" text-anchor="end" dominant-baseline="middle" fill="#333">0.00</text>
<line x1="53" y1="168.0" x2="56" y2="168.0" stroke="#444"/>
<text x="51" y="168.0" text-anchor="end" dominant-baseline="middle" fill="#333">4.44</text>
<line x1="53" y1="132.0" x2="56" y2="132.0" stroke="#444"/>
<text x="51" y="132.0" text-anchor="end" dominant-baseline="middle" fill="#333">8.87</text>
<line x1="53" y1="96.0" x2="56" y2="96.0" stroke="#444"/>
<text x="51" y="96.0" text-anchor="end" dominant-baseline="middle" fill="#333">13.31</text>
<line x1="53" y1="60.0" x2="56" y2="60.0" stroke="#444"/>
<text x="51" y="60.0" text-anchor="end" dominant-baseline="middle" fill="#333">17.75</text>
<line x1="53" y1="24.0" x2="56" y2="24.0" stroke="#444"/>
<text x="51" y="24.0" text-anchor="end" dominant-baseline="middle" fill="#333">22.18</text>
<text x="382.0" y="234" text-anchor="middle" fill="#333">t [s]</text>
<text transform="translate(14,114.0) rotate(-90)" text-anchor="middle" fill="#333">m/s</text>
<polyline fill="none" stroke="#000" stroke-width="1.6" points="56.0,34.8 57.6,34.8 59.2,34.9 60.8,35.0 62.4,35.1 64.0,35.2 65.6,35.2 67.2,35.3 68.8,35.4 70.4,35.5 72.0,35.6 73.6,35.6 75.2,35.7 76.8,35.8 78.4,35.9 80.0,36.0 81.6,36.1 83.2,36.1 84.8,36.2 86.4,36.3 88.0,36.4 89.6,36.5 91.2,36.6 92.8,37.1 94.4,37.6 96.0,38.3 97.7,38.9 99.3,39.6 100.9,40.4 102.5,41.1 104.1,41.9 105.7,42.6 107.3,43.5 108.9,44.3 110.5,45.1 112.1,45.9 113.7,46.8 115.3,47.6 116.9,48.4 118.5,49.2 120.1,50.1 121.7,50.9 123.3,51.7 124.9,52.5 126.5,53.4 128.1,54.2 129.7,55.0 131.3,55.8 132.9,56.6 134.5,57.4 136.1,58.3 137.7,59.1 139.3,59.9 140.9,60.7 142.5,61.5 144.1,62.4 145.7,63.2 147.3,64.0 148.9,64.8 150.5,65.6 152.1,66.4 153.7,67.3 155.3,68.1 156.9,68.9 158.5,69.7 160.1,70.4 161.7,71.0 163.3,71.6 164.9,72.4 166.5,73.2 168.1,74.0 169.7,74.8 171.3,75.6 172.9,76.4 174.5,77.2 176.1,78.0 177.7,78.8 179.4,79.6 181.0,80.4 182.6,81.2 184.2,82.0 185.8,82.8 187.4,83.6 189.0,84.4 190.6,85.2 192.2,86.0 193.8,86.8 195.4,87.6 197.0,88.4 198.6,89.2 200.2,90.0 201.8,90.8 203.4,91.6 205.0,92.4 206.6,93.2 208.2,94.0 209.8,94.8 211.4,95.6 213.0,96.4 214.6,97.2 216.2,98.0 217.8,98.8 219.4,99.6 221.0,100.4 222.6,101.2 224.2,102.0 225.8,102.8 227.4,103.6 229.0,104.3 230.6,105.0 232.2,105.6 233.8,106.3 235.4,107.1 237.0,107.9 238.6,108.7 240.2,109.4 241.8,110.1 243.4,110.7 245.0,111.4 246.6,112.2 248.2,113.0 249.8,113.8 251.4,114.6 253.0,115.4 254.6,116.1 256.2,116.9 257.8,117.7 259.4,118.5 261.1,119.2 262.7,119.9 264.3,120.5 265.9,121.3 267.5,122.1 269.1,122.9 270.7,123.6 272.3,124.4 273.9,125.2 275.5,126.0 277.1,126.7 278.7,127.5 280.3,128.3 281.9,129.1 283.5,129.9 285.1,130.7 286.7,131.4 288.3,132.2 289.9,133.0 291.5,133.8 293.1,134.6 294.7,135.3 296.3,136.1 297.9,136.9 299.5,137.7 301.1,138.4 302.7,139.1 304.3,139.7 305.9,140.5 307.5,141.4 309.1,142.2 310.7,142.9 312.3,143.6 313.9,144.5 315.5,145.3 317.1,146.0 318.7,146.7 320.3,147.5 321.9,148.4 323.5,149.2 325.1,149.9 326.7,150.7 328.3,151.5 329.9,152.3 331.5,153.1 333.1,153.8 334.7,154.6 336.3,155.3 337.9,156.0 339.5,156.4 341.1,157.1 342.8,157.9 344.4,158.7 346.0,159.5 347.6,160.3 349.2,161.1 350.8,161.9 352.4,162.4 354.0,163.3 355.6,164.5 357.2,165.1 358.8,165.6 360.4,166.6 362.0,168.3 363.6,168.6 365.2,168.8 366.8,169.4 368.4,170.2 370.0,170.7 371.6,171.3 373.2,172.1 374.8,172.3 376.4,172.8 378.0,173.3 379.6,173.9 381.2,174.6 382.8,175.1 384.4,175.6 386.0,176.0 387.6,176.5 389.2,176.9 390.8,177.3 392.4,177.6 394.0,177.8 395.6,178.3 397.2,178.9 398.8,179.4 400.4,180.1 402.0,180.2 403.6,181.0 405.2,181.2 406.8,181.9 408.4,182.1 410.0,182.6 411.6,183.1 413.2,183.5 414.8,184.4 416.4,184.7 418.0,185.3 419.6,186.2 421.2,186.2 422.9,187.1 424.5,187.3 426.1,188.0 427.7,188.5 429.3,188.8 430.9,189.5 432.5,189.8 434.1,190.6 435.7,191.5 437.3,191.9 438.9,192.6 440.5,192.7 442.1,193.2 443.7,193.7 445.3,195.0 446.9,196.1 448.5,197.1 450.1,198.2 451.7,198.6 453.3,199.1 454.9,199.3 456.5,200.1 458.1,200.7 459.7,201.4 461.3,202.2 462.9,202.2 464.5,202.6 466.1,202.3 467.7,202.7 469.3,202.6 470.9,202.8 472.5,202.9 474.1,202.8 475.7,203.1 477.3,202.8 478.9,203.2 480.5,203.0 482.1,203.3 483.7,203.4 485.3,203.3 486.9,203.6 488.5,203.4 490.1,203.8 491.7,203.5 493.3,203.8 494.9,203.7 496.5,203.7 498.1,203.9 499.7,203.7 501.3,204.1 502.9,203.7 504.6,204.1 506.2,203.9 507.8,204.0 509.4,204.1 511.0,203.9 512.6,204.2 514.2,203.9 515.8,204.2 517.4,204.0 519.0,204.1 520.6,204.2 522.2,204.0 523.8,204.3 525.4,204.0 527.0,204.3 528.6,204.1 530.2,204.2 531.8,204.2 533.4,204.1 535.0,204.4 536.6,204.1 538.2,204.4 539.8,204.1 541.4,204.3 543.0,204.3 544.6,204.2 546.2,204.4 547.8,204.0 549.4,204.4 551.0,204.1 552.6,204.3 554.2,204.2 555.8,204.2 557.4,204.4 559.0,204.1 560.6,204.5 562.2,204.2 563.8,204.4 565.4,204.3 567.0,204.2 568.6,204.4 570.2,204.1 571.8,204.4 573.4,204.1 575.0,204.3 576.6,204.2 578.2,204.2 579.8,204.4 581.4,204.0 583.0,204.4 584.6,204.1 586.3,204.2 587.9,204.2 589.5,204.1 591.1,204.4 592.7,204.0 594.3,204.4 595.9,204.0 597.5,204.2 599.1,204.2 600.7,204.1 602.3,204.3 603.9,204.0 605.5,204.4 607.1,204.1 608.7,204.2 610.3,204.2 611.9,204.1 613.5,204.4 615.1,204.0 616.7,204.4 618.3,204.1 619.9,204.3 621.5,204.3 623.1,204.1 624.7,204.4 626.3,204.1 627.9,204.4 629.5,204.2 631.1,204.2 632.7,204.3 634.3,204.0 635.9,204.4 637.5,204.0 639.1,204.3 640.7,204.1 642.3,204.1 643.9,204.2 645.5,204.0 647.1,204.4 648.7,204.0 650.3,204.3 651.9,204.2 653.5,204.2 655.1,204.4 656.7,204.0 658.3,204.4 659.9,204.1 661.5,204.3 663.1,204.2 664.7,204.1 666.3,204.3 668.0,204.0 669.6,204.4 671.2,204.1 672.8,204.3 674.4,204.2 676.0,204.1 677.6,204.4 679.2,204.0 680.8,204.4 682.4,204.1 684.0,204.2 685.6,204.2 687.2,204.0 688.8,204.4 690.4,203.9 692.0,204.3 693.6,204.0 695.2,204.1 696.8,204.2 698.4,204.0 700.0,204.3 701.6,203.9 703.2,204.2 704.8,204.1 706.4,204.0 708.0,204.2"/>
<polyline fill="none" stroke="#c0392b" stroke-width="1.0" points="56.0,32.9 57.6,33.0 59.2,33.1 60.8,33.2 62.4,33.2 64.0,33.3 65.6,33.4 67.2,33.5 68.8,33.6 70.4,33.6 72.0,33.7 73.6,33.8 75.2,33.9 76.8,34.0 78.4,34.0 80.0,34.1 81.6,34.2 83.2,34.3 84.8,34.4 86.4,34.5 88.0,34.5 89.6,34.7 91.2,36.6 92.8,38.1 94.4,39.4 96.0,40.5 97.7,41.6 99.3,42.6 100.9,43.5 102.5,44.4 104.1,45.3 105.7,46.1 107.3,46.9 108.9,47.8 110.5,48.6 112.1,49.4 113.7,50.2 115.3,51.0 116.9,51.8 118.5,52.6 120.1,53.4 121.7,54.2 123.3,55.0 124.9,55.8 126.5,56.6 128.1,57.4 129.7,58.2 131.3,59.0 132.9,59.8 134.5,60.6 136.1,61.4 137.7,62.2 139.3,63.0 140.9,63.8 142.5,64.6 144.1,65.4 145.7,66.2 147.3,67.0 148.9,67.8 150.5,68.6 152.1,69.4 153.7,70.2 155.3,71.0 156.9,71.8 158.5,72.2 160.1,72.1 161.7,73.0 163.3,74.0 164.9,74.9 166.5,75.7 168.1,76.6 169.7,77.4 171.3,78.2 172.9,79.0 174.5,79.8 176.1,80.6 177.7,81.4 179.4,82.2 181.0,83.0 182.6,83.8 184.2,84.6 185.8,85.3 187.4,86.1 189.0,86.9 190.6,87.7 192.2,88.5 193.8,89.3 195.4,90.0 197.0,90.8 198.6,91.6 200.2,92.4 201.8,93.2 203.4,93.9 205.0,94.7 206.6,95.5 208.2,96.3 209.8,97.1 211.4,97.9 213.0,98.6 214.6,99.4 216.2,100.3 217.8,100.8 219.4,101.8 221.0,102.9 222.6,102.5 224.2,104.5 225.8,106.7 227.4,101.7 229.0,111.4 230.6,108.3 232.2,104.2 233.8,114.7 235.4,104.1 237.0,113.8 238.6,110.4 240.2,106.1 241.8,118.7 243.4,107.6 245.0,116.0 246.6,116.9 248.2,110.6 249.8,123.0 251.4,112.6 253.0,119.2 254.6,122.3 256.2,113.5 257.8,127.4 259.4,118.6 261.1,124.8 262.7,125.9 264.3,116.5 265.9,131.6 267.5,120.5 269.1,126.4 270.7,130.8 272.3,120.6 273.9,135.6 275.5,124.8 277.1,130.2 278.7,135.0 280.3,124.5 281.9,139.6 283.5,128.7 285.1,134.2 286.7,139.1 288.3,128.5 289.9,143.7 291.5,132.7 293.1,138.2 294.7,143.1 296.3,132.4 297.9,147.8 299.5,138.0 301.1,144.7 302.7,146.0 304.3,136.2 305.9,151.8 307.5,139.4 309.1,146.9 310.7,150.2 312.3,140.4 313.9,155.6 315.5,143.9 317.1,150.3 318.7,154.6 320.3,144.3 321.9,159.4 323.5,148.1 325.1,154.2 326.7,158.6 328.3,148.4 329.9,163.4 331.5,151.8 333.1,158.6 334.7,162.1 336.3,151.8 337.9,168.0 339.5,153.9 341.1,163.2 342.8,163.5 344.4,156.7 346.0,171.2 347.6,157.9 349.2,168.4 350.8,166.9 352.4,161.8 354.0,172.9 355.6,162.3 357.2,173.9 358.8,168.7 360.4,171.2 362.0,172.3 363.6,161.2 365.2,179.9 366.8,170.6 368.4,171.0 370.0,179.2 371.6,172.0 373.2,186.7 374.8,172.2 376.4,184.4 378.0,165.3 379.6,179.8 381.2,172.0 382.8,175.2 384.4,174.5 386.0,174.8 387.6,174.6 389.2,178.3 390.8,173.3 392.4,182.4 394.0,182.1 395.6,185.3 397.2,186.7 398.8,181.2 400.4,193.7 402.0,179.8 403.6,194.1 405.2,180.7 406.8,193.0 408.4,181.3 410.0,193.7 411.6,177.4 413.2,189.0 414.8,182.9 416.4,183.7 418.0,190.0 419.6,178.7 421.2,191.5 422.9,181.7 424.5,190.5 426.1,184.3 427.7,190.3 429.3,186.6 430.9,195.4 432.5,194.3 434.1,194.2 435.7,195.7 437.3,191.6 438.9,198.6 440.5,186.7 442.1,198.4 443.7,193.2 445.3,196.4 446.9,196.5 448.5,196.9 450.1,197.4 451.7,203.4 453.3,201.5 454.9,199.6 456.5,198.0 458.1,202.8 459.7,200.7 461.3,203.4 462.9,201.5 464.5,203.3 466.1,203.1 467.7,203.9 469.3,201.8 470.9,200.5 472.5,195.9 474.1,199.4 475.7,202.7 477.3,197.6 478.9,196.8 480.5,202.8 482.1,200.2 483.7,199.1 485.3,202.5 486.9,203.5 488.5,200.6 490.1,200.3 491.7,195.9 493.3,201.0 494.9,200.7 496.5,201.7 498.1,200.7 499.7,203.2 501.3,198.6 502.9,200.2 504.6,199.7 506.2,201.0 507.8,199.2 509.4,196.5 511.0,199.8 512.6,195.4 514.2,200.6 515.8,200.7 517.4,200.5 519.0,197.9 520.6,201.1 522.2,201.5 523.8,199.1 525.4,200.6 527.0,202.1 528.6,197.4 530.2,199.1 531.8,201.3 533.4,197.7 535.0,198.4 536.6,202.6 538.2,202.7 539.8,200.5 541.4,201.8 543.0,198.0 544.6,201.6 546.2,201.9 547.8,202.5 549.4,203.8 551.0,200.6 552.6,196.9 554.2,196.0 555.8,198.9 557.4,196.8 559.0,203.6 560.6,198.9 562.2,195.3 563.8,202.6 565.4,201.2 567.0,200.6 568.6,202.0 570.2,196.6 571.8,201.9 573.4,198.4 575.0,198.0 576.6,199.9 578.2,203.7 579.8,200.4 581.4,204.0 583.0,201.5 584.6,201.8 586.3,200.8 587.9,194.8 589.5,195.1 591.1,195.1 592.7,201.1 594.3,201.8 595.9,202.1 597.5,199.3 599.1,198.6 600.7,203.4 602.3,202.5 603.9,202.6 605.5,202.5 607.1,203.7 608.7,203.4 610.3,202.5 611.9,202.8 613.5,202.1 615.1,197.6 616.7,196.4 618.3,203.1 619.9,200.5 621.5,196.3 623.1,194.7 624.7,195.3 626.3,200.3 627.9,203.6 629.5,200.9 631.1,199.2 632.7,200.7 634.3,201.4 635.9,203.9 637.5,200.1 639.1,201.7 640.7,200.4 642.3,202.8 643.9,202.7 645.5,203.7 647.1,203.9 648.7,203.8 650.3,196.8 651.9,201.5 653.5,194.8 655.1,194.3 656.7,196.7 658.3,199.3 659.9,203.8 661.5,203.6 663.1,202.0 664.7,199.9 666.3,200.3 668.0,197.6 669.6,196.0 671.2,202.8 672.8,194.7 674.4,197.0 676.0,197.2 677.6,202.8 679.2,200.4 680.8,198.7 682.4,199.8 684.0,199.3 685.6,202.1 687.2,195.5 688.8,201.7 690.4,203.7 692.0,201.4 693.6,202.8 695.2,202.3 696.8,195.1 698.4,199.1 700.0,199.1 701.6,199.1 703.2,194.9 704.8,202.5 706.4,199.3 708.0,199.6"/>
<polyline fill="none" stroke="#27ae60" stroke-width="1.0" points="56.0,32.9 57.6,33.0 59.2,33.1 60.8,33.1 62.4,33.2 64.0,33.3 65.6,33.4 67.2,33.5 68.8,33.6 70.4,33.6 72.0,33.7 73.6,33.8 75.2,33.9 76.8,34.0 78.4,34.0 80.0,34.1 81.6,34.2 83.2,34.3 84.8,34.4 86.4,34.5 88.0,34.5 89.6,34.7 91.2,36.6 92.8,38.2 94.4,39.5 96.0,40.7 97.7,41.7 99.3,42.7 100.9,43.6 102.5,44.5 104.1,45.4 105.7,46.2 107.3,47.1 108.9,47.9 110.5,48.7 112.1,49.5 113.7,50.3 115.3,51.1 116.9,51.9 118.5,52.7 120.1,53.5 121.7,54.3 123.3,55.1 124.9,55.9 126.5,56.7 128.1,57.5 129.7,58.3 131.3,59.1 132.9,59.9 134.5,60.7 136.1,61.5 137.7,62.3 139.3,63.1 140.9,63.9 142.5,64.7 144.1,65.5 145.7,66.3 147.3,67.1 148.9,67.9 150.5,68.7 152.1,69.5 153.7,70.3 155.3,71.1 156.9,71.9 158.5,72.3 160.1,72.2 161.7,73.0 163.3,74.1 164.9,75.0 166.5,75.8 168.1,76.7 169.7,77.5 171.3,78.3 172.9,79.1 174.5,79.9 176.1,80.7 177.7,81.5 179.4,82.3 181.0,83.1 182.6,83.9 184.2,84.6 185.8,85.4 187.4,86.2 189.0,87.0 190.6,87.8 192.2,88.6 193.8,89.3 195.4,90.1 197.0,90.9 198.6,91.7 200.2,92.5 201.8,93.2 203.4,94.0 205.0,94.8 206.6,95.6 208.2,96.4 209.8,97.2 211.4,97.9 213.0,98.7 214.6,99.5 216.2,100.2 217.8,101.2 219.4,101.8 221.0,102.2 222.6,104.2 224.2,103.9 225.8,103.2 227.4,109.9 229.0,101.5 230.6,105.5 232.2,111.5 233.8,102.8 235.4,115.2 237.0,107.1 238.6,112.1 240.2,117.3 241.8,105.8 243.4,118.9 245.0,112.3 246.6,113.1 248.2,121.1 249.8,110.2 251.4,122.2 253.0,117.3 254.6,115.9 256.2,126.2 257.8,114.0 259.4,124.0 261.1,118.6 262.7,119.1 264.3,130.4 265.9,117.0 267.5,129.8 269.1,125.5 270.7,122.8 272.3,134.7 273.9,121.2 275.5,133.6 277.1,129.9 278.7,126.7 280.3,138.8 281.9,125.2 283.5,137.7 285.1,133.9 286.7,130.7 288.3,142.9 289.9,129.2 291.5,141.8 293.1,137.9 294.7,134.8 296.3,147.0 297.9,133.1 299.5,144.2 301.1,138.1 302.7,138.6 304.3,150.5 305.9,136.5 307.5,150.4 309.1,144.5 310.7,143.1 312.3,154.4 313.9,140.7 315.5,153.9 317.1,149.2 318.7,146.7 320.3,158.5 321.9,144.9 323.5,157.7 325.1,153.3 326.7,150.7 328.3,162.5 329.9,148.9 331.5,162.0 333.1,156.9 334.7,155.1 336.3,166.3 337.9,150.1 339.5,166.2 341.1,159.1 342.8,160.4 344.4,168.6 346.0,155.9 347.6,170.7 349.2,161.6 350.8,164.8 352.4,172.0 354.0,162.3 355.6,173.4 357.2,163.8 358.8,171.4 360.4,169.8 362.0,168.0 363.6,181.8 365.2,166.0 366.8,176.6 368.4,175.8 370.0,168.6 371.6,176.4 373.2,161.8 374.8,177.8 376.4,166.9 378.0,187.7 379.6,174.2 381.2,182.4 382.8,179.9 384.4,181.5 386.0,182.0 387.6,183.2 389.2,180.1 390.8,185.8 392.4,176.9 394.0,178.9 395.6,177.2 397.2,176.6 398.8,183.0 400.4,171.0 402.0,186.3 403.6,172.0 405.2,186.8 406.8,174.8 408.4,187.7 410.0,176.4 411.6,195.0 413.2,184.3 414.8,191.3 416.4,191.6 418.0,186.1 419.6,197.2 421.2,185.8 422.9,195.8 424.5,188.1 426.1,194.7 427.7,189.5 429.3,193.9 430.9,187.2 432.5,189.7 434.1,190.2 435.7,188.7 437.3,193.4 438.9,186.8 440.5,200.5 442.1,191.9 443.7,199.3 445.3,196.9 446.9,197.3 448.5,197.7 450.1,198.1 451.7,194.0 453.3,197.6 454.9,201.0 456.5,203.9 458.1,200.2 459.7,203.0 461.3,200.3 462.9,198.0 464.5,200.1 466.1,200.2 467.7,200.9 469.3,203.4 470.9,203.0 472.5,198.4 474.1,196.9 475.7,202.8 477.3,199.2 478.9,198.6 480.5,203.9 482.1,201.3 483.7,200.3 485.3,203.7 486.9,202.6 488.5,201.3 490.1,201.1 491.7,196.6 493.3,200.3 494.9,200.0 496.5,201.0 498.1,200.3 499.7,202.8 501.3,198.8 502.9,200.0 504.6,199.5 506.2,201.1 507.8,199.0 509.4,196.4 511.0,199.7 512.6,195.4 514.2,200.6 515.8,200.7 517.4,200.7 519.0,198.0 520.6,201.1 522.2,201.6 523.8,199.2 525.4,200.3 527.0,202.3 528.6,197.8 530.2,198.8 531.8,201.6 533.4,198.1 535.0,198.0 536.6,202.2 538.2,202.4 539.8,200.1 541.4,202.3 543.0,197.7 544.6,201.9 546.2,201.7 547.8,202.0 549.4,203.6 551.0,200.6 552.6,197.2 554.2,196.3 555.8,199.3 557.4,196.4 559.0,203.9 560.6,199.3 562.2,194.8 563.8,203.1 565.4,201.8 567.0,201.1 568.6,201.8 570.2,196.2 571.8,201.7 573.4,198.1 575.0,198.2 576.6,199.2 578.2,203.9 579.8,200.7 581.4,203.4 583.0,201.9 584.6,201.7 586.3,200.6 587.9,194.8 589.5,195.1 591.1,195.1 592.7,201.2 594.3,201.7 595.9,202.2 597.5,199.6 599.1,198.9 600.7,203.0 602.3,202.8 603.9,203.0 605.5,202.8 607.1,203.9 608.7,203.2 610.3,202.8 611.9,203.2 613.5,201.8 615.1,197.3 616.7,196.7 618.3,202.8 619.9,200.2 621.5,196.6 623.1,194.3 624.7,195.7 626.3,199.8 627.9,203.2 629.5,200.9 631.1,199.5 632.7,201.0 634.3,201.0 635.9,203.5 637.5,200.3 639.1,201.7 640.7,200.0 642.3,202.4 643.9,202.2 645.5,203.3 647.1,203.5 648.7,203.5 650.3,196.5 651.9,201.1 653.5,195.0 655.1,194.0 656.7,197.1 658.3,198.9 659.9,203.8 661.5,203.8 663.1,202.1 664.7,200.1 666.3,200.5 668.0,197.2 669.6,195.8 671.2,202.5 672.8,194.9 674.4,196.8 676.0,196.9 677.6,203.2 679.2,200.8 680.8,199.1 682.4,200.0 684.0,199.1 685.6,202.4 687.2,195.4 688.8,201.6 690.4,203.4 692.0,201.3 693.6,202.6 695.2,202.3 696.8,195.1 698.4,199.0 700.0,199.2 701.6,199.2 703.2,194.8 704.8,202.4 706.4,199.5 708.0,199.4"/>
<polyline fill="none" stroke="#2980b9" stroke-width="1.0" points="56.0,32.6 57.6,32.7 59.2,32.7 60.8,32.8 62.4,32.9 64.0,33.0 65.6,33.1 67.2,33.2 68.8,33.2 70.4,33.3 72.0,33.4 73.6,33.5 75.2,33.6 76.8,33.6 78.4,33.7 80.0,33.8 81.6,33.9 83.2,34.0 84.8,34.1 86.4,34.1 88.0,34.2 89.6,34.3 91.2,34.4 92.8,34.8 94.4,35.3 96.0,36.0 97.7,36.7 99.3,37.5 100.9,38.3 102.5,39.1 104.1,39.9 105.7,40.7 107.3,41.5 108.9,42.3 110.5,43.1 112.1,43.9 113.7,44.8 115.3,45.6 116.9,46.5 118.5,47.3 120.1,48.1 121.7,49.0 123.3,49.8 124.9,50.6 126.5,51.5 128.1,52.3 129.7,53.1 131.3,53.9 132.9,54.8 134.5,55.6 136.1,56.4 137.7,57.3 139.3,58.1 140.9,58.9 142.5,59.7 144.1,60.6 145.7,61.4 147.3,62.2 148.9,63.1 150.5,63.9 152.1,64.7 153.7,65.5 155.3,66.4 156.9,67.2 158.5,68.0 160.1,68.7 161.7,69.3 163.3,70.0 164.9,70.7 166.5,71.5 168.1,72.3 169.7,73.1 171.3,73.9 172.9,74.8 174.5,75.6 176.1,76.4 177.7,77.2 179.4,78.0 181.0,78.8 182.6,79.6 184.2,80.5 185.8,81.3 187.4,82.1 189.0,82.9 190.6,83.7 192.2,84.5 193.8,85.3 195.4,86.2 197.0,87.0 198.6,87.8 200.2,88.6 201.8,89.4 203.4,90.2 205.0,91.0 206.6,91.8 208.2,92.6 209.8,93.4 211.4,94.3 213.0,95.1 214.6,95.9 216.2,96.7 217.8,97.5 219.4,98.3 221.0,99.1 222.6,99.9 224.2,100.7 225.8,101.6 227.4,102.0 229.0,103.4 230.6,103.9 232.2,104.0 233.8,106.1 235.4,104.8 237.0,107.1 238.6,108.2 240.2,105.3 241.8,112.8 243.4,106.6 245.0,109.2 246.6,115.1 248.2,104.8 249.8,118.9 251.4,109.3 253.0,114.1 254.6,118.5 256.2,108.7 257.8,123.2 259.4,113.1 261.1,118.2 262.7,122.5 264.3,112.0 265.9,127.4 267.5,116.4 269.1,121.7 270.7,126.4 272.3,115.3 273.9,131.6 275.5,120.2 277.1,125.5 278.7,130.7 280.3,118.8 281.9,136.0 283.5,124.0 285.1,129.4 286.7,134.7 288.3,122.4 289.9,140.3 291.5,127.9 293.1,133.3 294.7,138.8 296.3,126.0 297.9,144.5 299.5,131.8 301.1,137.5 302.7,142.7 304.3,129.6 305.9,148.6 307.5,135.2 309.1,141.1 310.7,146.5 312.3,133.4 313.9,152.6 315.5,139.3 317.1,145.0 318.7,150.7 320.3,137.3 321.9,156.7 323.5,143.4 325.1,148.9 326.7,154.8 328.3,141.2 329.9,160.9 331.5,147.3 333.1,153.0 334.7,158.7 336.3,145.2 337.9,164.8 339.5,150.8 341.1,156.4 342.8,162.1 344.4,148.9 346.0,168.7 347.6,154.2 349.2,161.0 350.8,165.5 352.4,153.3 354.0,173.0 355.6,157.9 357.2,165.9 358.8,168.2 360.4,159.0 362.0,177.7 363.6,160.6 365.2,171.5 366.8,170.0 368.4,165.9 370.0,179.6 371.6,161.3 373.2,177.4 374.8,170.9 376.4,170.6 378.0,179.9 379.6,163.3 381.2,183.9 382.8,167.1 384.4,178.1 386.0,176.3 387.6,171.8 389.2,187.4 390.8,169.4 392.4,179.7 394.0,179.9 395.6,172.8 397.2,189.4 398.8,170.0 400.4,185.0 402.0,178.2 403.6,179.7 405.2,187.3 406.8,172.4 408.4,189.7 410.0,180.0 411.6,181.3 413.2,190.4 414.8,173.5 416.4,190.5 418.0,183.0 419.6,183.9 421.2,192.7 422.9,176.8 424.5,193.4 426.1,185.2 427.7,186.6 429.3,194.6 430.9,179.9 432.5,197.2 434.1,186.6 435.7,192.7 437.3,193.5 438.9,188.7 440.5,199.0 442.1,185.1 443.7,201.3 445.3,188.6 446.9,198.6 448.5,196.2 450.1,195.8 451.7,203.4 453.3,191.4 454.9,200.0 456.5,193.3 458.1,203.1 459.7,200.2 461.3,199.9 462.9,201.3 464.5,194.9 466.1,196.8 467.7,194.5 469.3,199.8 470.9,200.2 472.5,201.9 474.1,200.7 475.7,195.1 477.3,196.1 478.9,194.4 480.5,198.8 482.1,200.2 483.7,203.1 485.3,201.4 486.9,196.8 488.5,195.8 490.1,194.3 491.7,197.2 493.3,200.1 494.9,203.9 496.5,202.0 498.1,198.0 499.7,195.6 501.3,194.4 502.9,195.7 504.6,198.3 506.2,201.4 507.8,203.4 509.4,199.7 511.0,197.6 512.6,194.9 514.2,194.6 515.8,197.0 517.4,200.0 519.0,204.0 520.6,201.4 522.2,198.3 523.8,195.0 525.4,194.6 527.0,195.6 528.6,198.3 530.2,201.6 531.8,203.2 533.4,199.0 535.0,196.6 536.6,194.6 538.2,195.2 539.8,197.3 541.4,201.0 543.0,203.6 544.6,199.6 546.2,197.2 547.8,194.6 549.4,194.5 551.0,196.4 552.6,200.5 554.2,203.9 555.8,201.1 557.4,197.7 559.0,194.6 560.6,195.8 562.2,199.8 563.8,202.9 565.4,199.4 567.0,196.6 568.6,194.8 570.2,194.4 571.8,197.1 573.4,200.1 575.0,203.4 576.6,200.0 578.2,197.0 579.8,194.8 581.4,194.0 583.0,196.3 584.6,199.7 586.3,204.0 587.9,201.7 589.5,197.6 591.1,194.7 592.7,194.0 594.3,195.4 595.9,199.2 597.5,202.4 599.1,202.4 600.7,198.4 602.3,194.9 603.9,194.3 605.5,195.2 607.1,199.3 608.7,202.8 610.3,202.5 611.9,198.3 613.5,194.8 615.1,194.2 616.7,195.7 618.3,199.4 619.9,202.8 621.5,202.8 623.1,198.6 624.7,196.5 626.3,194.4 627.9,193.9 629.5,195.2 631.1,200.2 632.7,203.5 634.3,198.9 635.9,196.2 637.5,194.3 639.1,195.2 640.7,199.2 642.3,202.8 643.9,202.4 645.5,198.1 647.1,194.8 648.7,194.1 650.3,196.0 651.9,199.9 653.5,202.8 655.1,198.1 656.7,194.5 658.3,195.1 659.9,198.8 661.5,202.0 663.1,203.0 664.7,198.2 666.3,194.7 668.0,194.3 669.6,195.0 671.2,198.7 672.8,202.2 674.4,202.1 676.0,197.4 677.6,194.6 679.2,194.3 680.8,197.0 682.4,200.0 684.0,203.2 685.6,199.4 687.2,196.7 688.8,194.5 690.4,194.5 692.0,197.8 693.6,200.7 695.2,203.1 696.8,198.8 698.4,195.2 700.0,194.2 701.6,194.3 703.2,196.3 704.8,199.8 706.4,203.5 708.0,199.5"/>
<polyline fill="none" stroke="#8e44ad" stroke-width="1.0" points="56.0,32.6 57.6,32.7 59.2,32.7 60.8,32.8 62.4,32.9 64.0,33.0 65.6,33.1 67.2,33.1 68.8,33.2 70.4,33.3 72.0,33.4 73.6,33.5 75.2,33.6 76.8,33.6 78.4,33.7 80.0,33.8 81.6,33.9 83.2,34.0 84.8,34.1 86.4,34.1 88.0,34.2 89.6,34.3 91.2,34.5 92.8,34.8 94.4,35.4 96.0,36.0 97.7,36.8 99.3,37.5 100.9,38.3 102.5,39.1 104.1,39.9 105.7,40.7 107.3,41.5 108.9,42.3 110.5,43.1 112.1,44.0 113.7,44.8 115.3,45.6 116.9,46.5 118.5,47.3 120.1,48.1 121.7,49.0 123.3,49.8 124.9,50.6 126.5,51.5 128.1,52.3 129.7,53.1 131.3,54.0 132.9,54.8 134.5,55.6 136.1,56.5 137.7,57.3 139.3,58.1 140.9,58.9 142.5,59.8 144.1,60.6 145.7,61.4 147.3,62.3 148.9,63.1 150.5,63.9 152.1,64.7 153.7,65.6 155.3,66.4 156.9,67.2 158.5,68.0 160.1,68.7 161.7,69.3 163.3,70.0 164.9,70.8 166.5,71.5 168.1,72.3 169.7,73.1 171.3,74.0 172.9,74.8 174.5,75.6 176.1,76.4 177.7,77.2 179.4,78.0 181.0,78.9 182.6,79.7 184.2,80.5 185.8,81.3 187.4,82.1 189.0,82.9 190.6,83.7 192.2,84.5 193.8,85.4 195.4,86.2 197.0,87.0 198.6,87.8 200.2,88.6 201.8,89.4 203.4,90.2 205.0,91.0 206.6,91.8 208.2,92.7 209.8,93.5 211.4,94.3 213.0,95.1 214.6,95.9 216.2,96.7 217.8,97.5 219.4,98.3 221.0,99.1 222.6,100.0 224.2,100.7 225.8,101.4 227.4,102.6 229.0,102.7 230.6,103.5 232.2,105.1 233.8,103.3 235.4,107.5 237.0,106.8 238.6,103.9 240.2,113.3 241.8,103.9 243.4,112.6 245.0,110.2 246.6,107.4 248.2,117.3 249.8,106.5 251.4,117.0 253.0,113.9 254.6,111.0 256.2,121.9 257.8,109.8 259.4,121.1 261.1,117.9 262.7,113.9 264.3,126.5 265.9,112.3 267.5,125.4 269.1,121.4 270.7,117.9 272.3,130.4 273.9,116.3 275.5,129.3 277.1,125.4 278.7,121.6 280.3,134.7 281.9,119.9 283.5,133.4 285.1,129.4 286.7,125.4 288.3,139.0 289.9,123.6 291.5,137.4 293.1,133.4 294.7,129.2 296.3,143.3 297.9,127.3 299.5,141.4 301.1,137.3 302.7,132.9 304.3,147.5 305.9,130.4 307.5,145.3 309.1,140.9 310.7,136.9 312.3,151.2 313.9,134.5 315.5,149.2 317.1,144.9 318.7,140.9 320.3,155.5 321.9,138.5 323.5,153.0 325.1,149.1 326.7,144.9 328.3,159.7 329.9,142.4 331.5,157.0 333.1,153.1 334.7,149.2 336.3,163.9 337.9,146.1 339.5,160.4 341.1,156.5 342.8,152.6 344.4,167.2 346.0,149.4 347.6,164.6 349.2,160.0 350.8,157.4 352.4,170.8 354.0,153.1 355.6,169.3 357.2,163.5 358.8,162.4 360.4,173.8 362.0,157.7 363.6,175.0 365.2,165.6 366.8,168.2 368.4,175.5 370.0,161.2 371.6,182.0 373.2,163.6 374.8,175.2 376.4,171.5 378.0,171.1 379.6,180.6 381.2,164.4 382.8,183.8 384.4,170.3 386.0,177.3 387.6,179.7 389.2,170.9 390.8,188.2 392.4,169.9 394.0,180.1 395.6,179.6 397.2,173.4 398.8,190.1 400.4,170.9 402.0,183.9 403.6,178.2 405.2,180.4 406.8,185.3 408.4,177.4 410.0,191.6 411.6,172.3 413.2,190.3 414.8,181.4 416.4,183.7 418.0,191.3 419.6,177.6 421.2,193.0 422.9,184.5 424.5,186.5 426.1,193.5 427.7,180.7 429.3,195.7 430.9,185.7 432.5,189.0 434.1,193.5 435.7,185.0 437.3,199.8 438.9,183.4 440.5,199.7 442.1,189.4 443.7,194.9 445.3,196.2 446.9,192.4 448.5,202.3 450.1,190.8 451.7,202.1 453.3,192.7 454.9,203.4 456.5,198.9 458.1,198.7 459.7,202.2 461.3,194.7 462.9,197.4 464.5,193.8 466.1,199.1 467.7,199.2 469.3,203.0 470.9,202.4 472.5,196.7 474.1,196.7 475.7,193.6 477.3,196.0 478.9,196.3 480.5,201.0 482.1,202.2 483.7,201.3 485.3,199.7 486.9,195.6 488.5,195.6 490.1,195.1 491.7,198.0 493.3,200.0 494.9,204.0 496.5,201.3 498.1,197.5 499.7,195.5 501.3,194.6 502.9,196.0 504.6,199.2 506.2,202.1 507.8,202.8 509.4,199.5 511.0,196.5 512.6,194.8 514.2,194.8 515.8,196.7 517.4,200.0 519.0,203.6 520.6,201.6 522.2,198.0 523.8,195.1 525.4,194.4 527.0,196.0 528.6,199.3 530.2,202.7 531.8,202.4 533.4,198.6 535.0,195.7 536.6,194.5 538.2,195.2 539.8,197.3 541.4,201.0 543.0,203.6 544.6,200.1 546.2,197.4 547.8,194.7 549.4,194.6 551.0,196.4 552.6,200.2 554.2,203.6 555.8,201.0 557.4,198.3 559.0,195.2 560.6,194.6 562.2,194.0 563.8,196.6 565.4,199.8 567.0,203.3 568.6,200.6 570.2,197.3 571.8,194.8 573.4,194.4 575.0,197.5 576.6,200.5 578.2,203.2 579.8,199.1 581.4,196.3 583.0,194.6 584.6,194.7 586.3,199.1 587.9,201.5 589.5,202.9 591.1,198.3 592.7,194.7 594.3,194.2 595.9,195.5 597.5,200.2 599.1,203.9 600.7,200.6 602.3,197.5 603.9,194.5 605.5,194.6 607.1,196.1 608.7,200.3 610.3,203.5 611.9,199.1 613.5,196.6 615.1,194.4 616.7,194.5 618.3,196.6 619.9,201.0 621.5,202.9 623.1,198.0 624.7,194.8 626.3,194.6 627.9,199.8 629.5,203.1 631.1,201.9 632.7,198.2 634.3,194.7 635.9,194.2 637.5,194.8 639.1,199.7 640.7,202.3 642.3,202.4 643.9,198.2 645.5,194.7 647.1,194.2 648.7,195.1 650.3,200.2 651.9,203.4 653.5,199.3 655.1,197.3 656.7,194.5 658.3,194.2 659.9,195.1 661.5,199.8 663.1,204.0 664.7,201.1 666.3,197.5 668.0,194.4 669.6,195.0 671.2,198.4 672.8,201.0 674.4,203.8 676.0,201.1 677.6,197.6 679.2,194.5 680.8,194.4 682.4,196.2 684.0,200.5 685.6,203.2 687.2,198.4 688.8,194.7 690.4,194.1 692.0,195.4 693.6,199.6 695.2,203.8 696.8,201.2 698.4,198.1 700.0,194.6 701.6,195.0 703.2,200.4 704.8,202.8 706.4,198.5 708.0,194.8"/>
<rect x="64" y="29" width="10" height="3" fill="#000"/>
<text x="78" y="35" fill="#222">chassis</text>
<rect x="64" y="42" width="10" height="3" fill="#c0392b"/>
<text x="78" y="48" fill="#222">FL wheel</text>
<rect x="64" y="55" width="10" height="3" fill="#27ae60"/>
<text x="78" y="61" fill="#222">FR wheel</text>
<rect x="64" y="68" width="10" height="3" fill="#2980b9"/>
<text x="78" y="74" fill="#222">RL wheel</text>
<rect x="64" y="81" width="10" height="3" fill="#8e44ad"/>
<text x="78" y="87" fill="#222">RR wheel</text>
</svg>
